<svg width="16" height="16" viewBox="0 0 16 16" fill="none" xmlns="http://www.w3.org/2000/svg">
<path d="M8 16C12.4183 16 16 12.4183 16 8C16 3.58172 12.4183 0 8 0C3.58172 0 0 3.58172 0 8C0 12.4183 3.58172 16 8 16Z" fill="#D8D8D8"/>
<mask id="mask0" mask-type="alpha" maskUnits="userSpaceOnUse" x="0" y="0" width="16" height="16">
<path d="M8 16C12.4183 16 16 12.4183 16 8C16 3.58172 12.4183 0 8 0C3.58172 0 0 3.58172 0 8C0 12.4183 3.58172 16 8 16Z" fill="white"/>
</mask>
<g mask="url(#mask0)">
<path d="M0 0V16H16V0H0Z" fill="#00247D"/>
<path d="M-9.6001 0L25.5999 16.8L-9.6001 0ZM25.5999 0L-9.6001 16.8L25.5999 0Z" fill="black"/>
<path d="M25.5999 0L-9.6001 16.8M-9.6001 0L25.5999 16.8L-9.6001 0Z" stroke="white" stroke-width="4"/>
<mask id="mask1" mask-type="alpha" maskUnits="userSpaceOnUse" x="-10" y="0" width="36" height="17">
<path d="M7.59995 8.4H25.1813V16.8L7.59995 8.4ZM7.59995 8.4V16.8H-9.98145L7.59995 8.4ZM7.59995 8.4H-9.98145V0L7.59995 8.4ZM7.59995 8.4V0H25.1813L7.59995 8.4Z" fill="white"/>
</mask>
<g mask="url(#mask1)">
<path d="M-9.98145 0L25.1813 16.8L-9.98145 0ZM25.1813 0L-9.98145 16.8L25.1813 0Z" fill="black"/>
<path d="M25.1813 0L-9.98145 16.8M-9.98145 0L25.1813 16.8L-9.98145 0Z" stroke="#CF142B" stroke-width="2"/>
</g>
<path d="M7.9999 0V16.8V0ZM-9.6001 8.4H25.5999H-9.6001Z" fill="black"/>
<path d="M-9.6001 8.4H25.5999M7.9999 0V16.8V0Z" stroke="white" stroke-width="4"/>
<path d="M7.9999 0V16.8V0ZM-9.6001 8.4H25.5999H-9.6001Z" fill="black"/>
<path d="M-9.6001 8.4H25.5999M7.9999 0V16.8V0Z" stroke="#CF142B" stroke-width="2"/>
</g>
</svg>
