<svg width="16" height="16" viewBox="0 0 16 16" fill="none" xmlns="http://www.w3.org/2000/svg">
<path d="M8 16C12.4183 16 16 12.4183 16 8C16 3.58172 12.4183 0 8 0C3.58172 0 0 3.58172 0 8C0 12.4183 3.58172 16 8 16Z" fill="#D8D8D8"/>
<mask id="mask0" mask-type="alpha" maskUnits="userSpaceOnUse" x="0" y="0" width="16" height="16">
<path d="M8 16C12.4183 16 16 12.4183 16 8C16 3.58172 12.4183 0 8 0C3.58172 0 0 3.58172 0 8C0 12.4183 3.58172 16 8 16Z" fill="white"/>
</mask>
<g mask="url(#mask0)">
<path d="M5.71408 0H-1.14307V17.1429H5.71408V0Z" fill="#EB4658"/>
</g>
<mask id="mask1" mask-type="alpha" maskUnits="userSpaceOnUse" x="0" y="0" width="16" height="16">
<path d="M8 16C12.4183 16 16 12.4183 16 8C16 3.58172 12.4183 0 8 0C3.58172 0 0 3.58172 0 8C0 12.4183 3.58172 16 8 16Z" fill="white"/>
</mask>
<g mask="url(#mask1)">
<path d="M17.1429 0H5.71436V17.1429H17.1429V0Z" fill="#4CAF50"/>
</g>
<path d="M5.71422 11.4286C7.60776 11.4286 9.14279 9.89353 9.14279 7.99998C9.14279 6.10643 7.60776 4.57141 5.71422 4.57141C3.82067 4.57141 2.28564 6.10643 2.28564 7.99998C2.28564 9.89353 3.82067 11.4286 5.71422 11.4286Z" stroke="#F8E71C"/>
<mask id="mask2" mask-type="alpha" maskUnits="userSpaceOnUse" x="2" y="4" width="8" height="8">
<path d="M5.71422 11.4286C7.60776 11.4286 9.14279 9.89353 9.14279 7.99998C9.14279 6.10643 7.60776 4.57141 5.71422 4.57141C3.82067 4.57141 2.28564 6.10643 2.28564 7.99998C2.28564 9.89353 3.82067 11.4286 5.71422 11.4286Z" fill="white"/>
</mask>
<g mask="url(#mask2)">
<path d="M6.857 6.85718H4.57129V8.00003H6.857V6.85718Z" fill="#F8E71C"/>
</g>
<mask id="mask3" mask-type="alpha" maskUnits="userSpaceOnUse" x="2" y="4" width="8" height="8">
<path d="M5.71422 11.4286C7.60776 11.4286 9.14279 9.89353 9.14279 7.99998C9.14279 6.10643 7.60776 4.57141 5.71422 4.57141C3.82067 4.57141 2.28564 6.10643 2.28564 7.99998C2.28564 9.89353 3.82067 11.4286 5.71422 11.4286Z" fill="white"/>
</mask>
<g mask="url(#mask3)">
<path d="M4.57129 8C4.57129 8.63118 5.08296 9.14286 5.71415 9.14286C6.34533 9.14286 6.857 8.63118 6.857 8" fill="#F8E71C"/>
</g>
</svg>
