<svg width="16" height="16" viewBox="0 0 16 16" fill="none" xmlns="http://www.w3.org/2000/svg">
<path d="M8 16C12.4183 16 16 12.4183 16 8C16 3.58172 12.4183 0 8 0C3.58172 0 0 3.58172 0 8C0 12.4183 3.58172 16 8 16Z" fill="#D8D8D8"/>
<mask id="mask0" mask-type="alpha" maskUnits="userSpaceOnUse" x="0" y="0" width="16" height="16">
<path d="M8 16C12.4183 16 16 12.4183 16 8C16 3.58172 12.4183 0 8 0C3.58172 0 0 3.58172 0 8C0 12.4183 3.58172 16 8 16Z" fill="white"/>
</mask>
<g mask="url(#mask0)">
<path d="M0 0V16H16V0H0Z" fill="#00247D"/>
<path d="M-9.60001 0L25.6 16.8L-9.60001 0ZM25.6 0L-9.60001 16.8L25.6 0Z" fill="black"/>
<path d="M25.6 0L-9.60001 16.8M-9.60001 0L25.6 16.8L-9.60001 0Z" stroke="white" stroke-width="4"/>
<mask id="mask1" mask-type="alpha" maskUnits="userSpaceOnUse" x="-10" y="0" width="36" height="17">
<path d="M7.59999 8.4H25.1814V16.8L7.59999 8.4ZM7.59999 8.4V16.8H-9.9814L7.59999 8.4ZM7.59999 8.4H-9.9814V0L7.59999 8.4ZM7.59999 8.4V0H25.1814L7.59999 8.4Z" fill="white"/>
</mask>
<g mask="url(#mask1)">
<path d="M-9.9814 0L25.1814 16.8L-9.9814 0ZM25.1814 0L-9.9814 16.8L25.1814 0Z" fill="black"/>
<path d="M25.1814 0L-9.9814 16.8M-9.9814 0L25.1814 16.8L-9.9814 0Z" stroke="#CF142B" stroke-width="2"/>
</g>
<path d="M8 0V16.8V0ZM-9.60001 8.4H25.6H-9.60001Z" fill="black"/>
<path d="M-9.60001 8.4H25.6M8 0V16.8V0Z" stroke="white" stroke-width="4"/>
<path d="M8 0V16.8V0ZM-9.60001 8.4H25.6H-9.60001Z" fill="black"/>
<path d="M-9.60001 8.4H25.6M8 0V16.8V0Z" stroke="#CF142B" stroke-width="2"/>
</g>
</svg>
