<svg width="16" height="16" viewBox="0 0 16 16" fill="none" xmlns="http://www.w3.org/2000/svg">
<path d="M8 16C12.4183 16 16 12.4183 16 8C16 3.58172 12.4183 0 8 0C3.58172 0 0 3.58172 0 8C0 12.4183 3.58172 16 8 16Z" fill="#D8D8D8"/>
<mask id="mask0" mask-type="alpha" maskUnits="userSpaceOnUse" x="0" y="0" width="16" height="16">
<path d="M8 16C12.4183 16 16 12.4183 16 8C16 3.58172 12.4183 0 8 0C3.58172 0 0 3.58172 0 8C0 12.4183 3.58172 16 8 16Z" fill="white"/>
</mask>
<g mask="url(#mask0)">
<path d="M5.71428 0H-1.14286V17.1429H5.71428V0Z" fill="#EB4658"/>
</g>
<mask id="mask1" mask-type="alpha" maskUnits="userSpaceOnUse" x="0" y="0" width="16" height="16">
<path d="M8 16C12.4183 16 16 12.4183 16 8C16 3.58172 12.4183 0 8 0C3.58172 0 0 3.58172 0 8C0 12.4183 3.58172 16 8 16Z" fill="white"/>
</mask>
<g mask="url(#mask1)">
<path d="M17.1429 0H5.71429V17.1429H17.1429V0Z" fill="#4CAF50"/>
</g>
<path d="M5.71429 11.4286C7.60783 11.4286 9.14286 9.89356 9.14286 8.00001C9.14286 6.10647 7.60783 4.57144 5.71429 4.57144C3.82074 4.57144 2.28571 6.10647 2.28571 8.00001C2.28571 9.89356 3.82074 11.4286 5.71429 11.4286Z" stroke="#F8E71C"/>
<mask id="mask2" mask-type="alpha" maskUnits="userSpaceOnUse" x="2" y="4" width="8" height="8">
<path d="M5.71429 11.4286C7.60783 11.4286 9.14286 9.89356 9.14286 8.00001C9.14286 6.10647 7.60783 4.57144 5.71429 4.57144C3.82074 4.57144 2.28571 6.10647 2.28571 8.00001C2.28571 9.89356 3.82074 11.4286 5.71429 11.4286Z" fill="white"/>
</mask>
<g mask="url(#mask2)">
<path d="M6.85714 6.85715H4.57143V8H6.85714V6.85715Z" fill="#F8E71C"/>
</g>
<mask id="mask3" mask-type="alpha" maskUnits="userSpaceOnUse" x="2" y="4" width="8" height="8">
<path d="M5.71429 11.4286C7.60783 11.4286 9.14286 9.89356 9.14286 8.00001C9.14286 6.10647 7.60783 4.57144 5.71429 4.57144C3.82074 4.57144 2.28571 6.10647 2.28571 8.00001C2.28571 9.89356 3.82074 11.4286 5.71429 11.4286Z" fill="white"/>
</mask>
<g mask="url(#mask3)">
<path d="M4.57143 8C4.57143 8.63118 5.0831 9.14286 5.71428 9.14286C6.34547 9.14286 6.85714 8.63118 6.85714 8" fill="#F8E71C"/>
</g>
</svg>
