<svg width="24" height="24" viewBox="0 0 24 24" fill="none" xmlns="http://www.w3.org/2000/svg">
<path d="M4.51 4.00031V4C4.51 3.17287 5.1794 2.5 6 2.5H13.7929L19.5 8.20711V20C19.5 20.8239 18.8239 21.5 18 21.5H5.99C5.16945 21.5 4.50008 20.8272 4.5 20.0002C4.5 20.0001 4.5 20.0001 4.5 20L4.51 4.00031Z" fill="#0B103B" stroke="#42526E"/>
<path fill-rule="evenodd" clip-rule="evenodd" d="M9.99017 15.928C9.7779 16.0339 9.52596 16.0224 9.32424 15.8976C9.12253 15.7728 8.99977 15.5524 8.99976 15.3152V10.6848C8.99977 10.4475 9.12253 10.2272 9.32424 10.1024C9.52596 9.97762 9.7779 9.96609 9.99017 10.0719L14.6215 12.388C14.8534 12.5038 15 12.7407 15 13C15 13.2593 14.8534 13.4962 14.6215 13.612L9.99017 15.928Z" fill="white"/>
</svg>
