<svg width="24" height="24" viewBox="0 0 24 24" fill="none" xmlns="http://www.w3.org/2000/svg">
<path d="M14 2H6C4.9 2 4.01 2.9 4.01 4L4 20C4 21.1 4.89 22 5.99 22H18C19.1 22 20 21.1 20 20V8L14 2Z" fill="#F03D3E"/>
<path fill-rule="evenodd" clip-rule="evenodd" d="M11.1222 5.5625C10.3984 5.5625 9.8054 6.1555 9.8054 6.87926C9.8054 7.82782 10.3636 9.08949 10.953 10.2626C10.4853 11.7293 9.95397 13.3156 9.26132 14.6518H9.25675C9.01855 14.7456 8.78493 14.8354 8.55787 14.9226C7.47279 15.3397 6.5372 15.6992 5.96484 16.1606C5.6882 16.4047 5.56695 16.8164 5.5625 17.1207C5.5625 17.8445 6.1555 18.4375 6.87926 18.4375C7.26028 18.4375 7.61252 18.2646 7.83483 18.0397C8.3557 17.4178 9.57584 15.1611 9.57679 15.1593C10.9097 14.6347 12.3166 14.0944 13.678 13.7785C14.6038 14.5454 16.01 15.0724 17.1207 15.0724C17.8445 15.0724 18.4375 14.4794 18.4375 13.7557C18.4375 13.0319 17.8445 12.4389 17.1207 12.4389C16.2217 12.4389 14.8382 12.7774 13.8243 13.1247C12.9525 12.3198 12.1504 11.3017 11.5839 10.2169C11.6468 10.0215 11.7115 9.82586 11.7757 9.63152C12.113 8.61126 12.4389 7.6254 12.4389 6.87926C12.4389 6.1555 11.8459 5.5625 11.1222 5.5625ZM11.1222 6.14773C11.5296 6.14773 11.8537 6.47178 11.8537 6.87926C11.8537 7.42831 11.5488 8.40196 11.2227 9.41677C10.7734 8.44041 10.3906 7.45728 10.3906 6.87926C10.3906 6.47178 10.7147 6.14773 11.1222 6.14773ZM13.1796 13.3076C12.481 12.6213 11.8489 11.8176 11.337 10.9484C10.9689 12.0853 10.5657 13.2622 10.0523 14.3592C11.0713 13.9649 12.1192 13.5808 13.1796 13.3076ZM17.1207 13.0241C17.5282 13.0241 17.8523 13.3482 17.8523 13.7557C17.8523 14.1632 17.5282 14.4872 17.1207 14.4872C16.3303 14.4872 15.2285 14.0982 14.4232 13.5728C15.3537 13.2869 16.4708 13.0241 17.1207 13.0241ZM7.39134 17.6511C7.74162 17.2304 8.2403 16.3744 8.71724 15.5022C7.68357 15.9074 6.77087 16.2748 6.3489 16.6087C6.23136 16.7357 6.14773 16.9268 6.14773 17.1207C6.14773 17.5282 6.47178 17.8523 6.87926 17.8523C7.09204 17.8523 7.26412 17.7769 7.39134 17.6511Z" fill="white"/>
<path d="M10.953 10.2626L11.1435 10.3234L11.1683 10.2457L11.1317 10.1728L10.953 10.2626ZM9.26132 14.6518V14.8518H9.38292L9.43888 14.7439L9.26132 14.6518ZM9.25675 14.6518V14.4518H9.2188L9.18349 14.4657L9.25675 14.6518ZM8.55787 14.9226L8.48612 14.7359H8.48612L8.55787 14.9226ZM5.96484 16.1606L5.83921 16.0047L5.83252 16.0106L5.96484 16.1606ZM5.5625 17.1207L5.3625 17.1178V17.1207H5.5625ZM7.83483 18.0397L7.97705 18.1803L7.98286 18.1745L7.98816 18.1681L7.83483 18.0397ZM9.57679 15.1593L9.50354 14.9732L9.43476 15.0003L9.40012 15.0656L9.57679 15.1593ZM13.678 13.7785L13.8055 13.6245L13.7292 13.5613L13.6328 13.5837L13.678 13.7785ZM13.8243 13.1247L13.6886 13.2717L13.7762 13.3526L13.8891 13.3139L13.8243 13.1247ZM11.5839 10.2169L11.3936 10.1556L11.3679 10.2353L11.4067 10.3095L11.5839 10.2169ZM11.7757 9.63152L11.9656 9.69429V9.69429L11.7757 9.63152ZM11.2227 9.41677L11.0411 9.50038L11.2559 9.96729L11.4132 9.47795L11.2227 9.41677ZM11.337 10.9484L11.5094 10.8469L11.2838 10.4638L11.1468 10.8868L11.337 10.9484ZM13.1796 13.3076L13.2295 13.5013L13.5723 13.413L13.3198 13.1649L13.1796 13.3076ZM10.0523 14.3592L9.87115 14.2744L9.66009 14.7254L10.1245 14.5457L10.0523 14.3592ZM14.4232 13.5728L14.3645 13.3816L13.9564 13.507L14.3139 13.7403L14.4232 13.5728ZM8.71724 15.5022L8.89272 15.5982L9.15691 15.1151L8.64425 15.316L8.71724 15.5022ZM7.39134 17.6511L7.53198 17.7933L7.53885 17.7865L7.54503 17.7791L7.39134 17.6511ZM6.3489 16.6087L6.2248 16.4518L6.21263 16.4615L6.20209 16.4728L6.3489 16.6087ZM10.0054 6.87926C10.0054 6.26596 10.5089 5.7625 11.1222 5.7625V5.3625C10.2879 5.3625 9.6054 6.04504 9.6054 6.87926H10.0054ZM11.1317 10.1728C10.838 9.58834 10.5552 8.98765 10.3459 8.41778C10.1357 7.84535 10.0054 7.31875 10.0054 6.87926H9.6054C9.6054 7.38833 9.75419 7.96685 9.97043 8.55567C10.1876 9.14705 10.4785 9.76376 10.7743 10.3524L11.1317 10.1728ZM9.43888 14.7439C10.1403 13.3907 10.6761 11.7892 11.1435 10.3234L10.7624 10.2018C10.2945 11.6693 9.76762 13.2405 9.08376 14.5598L9.43888 14.7439ZM9.25675 14.8518H9.26132V14.4518H9.25675V14.8518ZM8.62962 15.1093C8.85658 15.0221 9.09093 14.932 9.33 14.8379L9.18349 14.4657C8.94616 14.5591 8.71329 14.6486 8.48612 14.7359L8.62962 15.1093ZM6.09036 16.3163C6.63241 15.8794 7.53179 15.5312 8.62962 15.1093L8.48612 14.7359C7.41378 15.1481 6.44199 15.5191 5.83933 16.0049L6.09036 16.3163ZM5.76248 17.1237C5.76641 16.8549 5.87625 16.5055 6.09717 16.3106L5.83252 16.0106C5.50016 16.3039 5.36749 16.778 5.36252 17.1178L5.76248 17.1237ZM6.87926 18.2375C6.26596 18.2375 5.7625 17.734 5.7625 17.1207H5.3625C5.3625 17.9549 6.04504 18.6375 6.87926 18.6375V18.2375ZM7.6926 17.8991C7.50457 18.0893 7.20233 18.2375 6.87926 18.2375V18.6375C7.31823 18.6375 7.72047 18.4399 7.97705 18.1803L7.6926 17.8991ZM9.40012 15.0656C9.40078 15.0643 9.09664 15.6269 8.72752 16.2671C8.35452 16.9139 7.92836 17.6165 7.6815 17.9113L7.98816 18.1681C8.26216 17.841 8.70651 17.1043 9.07404 16.4669C9.44544 15.8228 9.75186 15.2561 9.75347 15.253L9.40012 15.0656ZM13.6328 13.5837C12.2551 13.9034 10.8351 14.4491 9.50354 14.9732L9.65005 15.3454C10.9843 14.8202 12.3782 14.2854 13.7232 13.9734L13.6328 13.5837ZM17.1207 14.8724C16.0603 14.8724 14.6985 14.3642 13.8055 13.6245L13.5504 13.9326C14.5092 14.7267 15.9598 15.2724 17.1207 15.2724V14.8724ZM18.2375 13.7557C18.2375 14.369 17.734 14.8724 17.1207 14.8724V15.2724C17.955 15.2724 18.6375 14.5899 18.6375 13.7557H18.2375ZM17.1207 12.6389C17.734 12.6389 18.2375 13.1424 18.2375 13.7557H18.6375C18.6375 12.9215 17.955 12.2389 17.1207 12.2389V12.6389ZM13.8891 13.3139C14.897 12.9686 16.2553 12.6389 17.1207 12.6389V12.2389C16.1881 12.2389 14.7794 12.5861 13.7594 12.9355L13.8891 13.3139ZM11.4067 10.3095C11.9845 11.416 12.8012 12.4523 13.6886 13.2717L13.9599 12.9778C13.1039 12.1874 12.3163 11.1873 11.7612 10.1243L11.4067 10.3095ZM11.5859 9.56874C11.5216 9.76296 11.4567 9.95931 11.3936 10.1556L11.7743 10.2782C11.8369 10.0836 11.9013 9.88876 11.9656 9.69429L11.5859 9.56874ZM12.2389 6.87926C12.2389 7.58558 11.9274 8.53558 11.5859 9.56874L11.9656 9.69429C12.2986 8.68694 12.6389 7.66521 12.6389 6.87926H12.2389ZM11.1222 5.7625C11.7355 5.7625 12.2389 6.26596 12.2389 6.87926H12.6389C12.6389 6.04504 11.9564 5.3625 11.1222 5.3625V5.7625ZM12.0537 6.87926C12.0537 6.36132 11.6401 5.94773 11.1222 5.94773V6.34773C11.4192 6.34773 11.6537 6.58224 11.6537 6.87926H12.0537ZM11.4132 9.47795C11.576 8.97114 11.7353 8.46937 11.8537 8.02486C11.971 7.5848 12.0537 7.18213 12.0537 6.87926H11.6537C11.6537 7.12545 11.5839 7.48412 11.4672 7.92185C11.3518 8.35513 11.1956 8.84759 11.0323 9.35559L11.4132 9.47795ZM10.1906 6.87926C10.1906 7.20334 10.296 7.61999 10.4491 8.06388C10.6041 8.51285 10.8151 9.00944 11.0411 9.50038L11.4044 9.33316C11.181 8.84774 10.976 8.36459 10.8272 7.9334C10.6767 7.49712 10.5906 7.13321 10.5906 6.87926H10.1906ZM11.1222 5.94773C10.6042 5.94773 10.1906 6.36132 10.1906 6.87926H10.5906C10.5906 6.58224 10.8251 6.34773 11.1222 6.34773V5.94773ZM11.1647 11.0499C11.6855 11.9343 12.3284 12.7518 13.0394 13.4503L13.3198 13.1649C12.6335 12.4908 12.0122 11.7009 11.5094 10.8469L11.1647 11.0499ZM10.2334 14.444C10.7524 13.335 11.1588 12.148 11.5273 11.01L11.1468 10.8868C10.7789 12.0227 10.3789 13.1895 9.87115 14.2744L10.2334 14.444ZM13.1297 13.1139C12.0573 13.3902 11.0004 13.7779 9.98012 14.1727L10.1245 14.5457C11.1422 14.1519 12.181 13.7714 13.2295 13.5013L13.1297 13.1139ZM18.0523 13.7557C18.0523 13.2377 17.6387 12.8241 17.1207 12.8241V13.2241C17.4178 13.2241 17.6523 13.4587 17.6523 13.7557H18.0523ZM17.1207 14.6872C17.6387 14.6872 18.0523 14.2736 18.0523 13.7557H17.6523C17.6523 14.0527 17.4178 14.2872 17.1207 14.2872V14.6872ZM14.3139 13.7403C15.1414 14.2801 16.2808 14.6872 17.1207 14.6872V14.2872C16.3799 14.2872 15.3156 13.9162 14.5325 13.4053L14.3139 13.7403ZM17.1207 12.8241C16.4379 12.8241 15.2952 13.0956 14.3645 13.3816L14.482 13.764C15.4121 13.4781 16.5038 13.2241 17.1207 13.2241V12.8241ZM8.54176 15.4063C8.06262 16.2825 7.57314 17.1202 7.23764 17.5231L7.54503 17.7791C7.91009 17.3406 8.41797 16.4663 8.89272 15.5982L8.54176 15.4063ZM6.473 16.7655C6.66301 16.6152 6.97685 16.4483 7.38563 16.2646C7.79067 16.0827 8.27289 15.8912 8.79023 15.6884L8.64425 15.316C8.12792 15.5184 7.63695 15.7132 7.22173 15.8997C6.81025 16.0846 6.45675 16.2683 6.2248 16.4518L6.473 16.7655ZM6.34773 17.1207C6.34773 16.9805 6.41009 16.837 6.49571 16.7445L6.20209 16.4728C6.05264 16.6344 5.94773 16.8732 5.94773 17.1207H6.34773ZM6.87926 17.6523C6.58224 17.6523 6.34773 17.4178 6.34773 17.1207H5.94773C5.94773 17.6387 6.36132 18.0523 6.87926 18.0523V17.6523ZM7.25069 17.5089C7.16211 17.5965 7.04107 17.6523 6.87926 17.6523V18.0523C7.143 18.0523 7.36613 17.9573 7.53198 17.7933L7.25069 17.5089Z" fill="white"/>
</svg>
