<svg width="24" height="24" viewBox="0 0 24 24" fill="none" xmlns="http://www.w3.org/2000/svg">
<mask id="mask0" mask-type="alpha" maskUnits="userSpaceOnUse" x="4" y="2" width="16" height="20">
<path fill-rule="evenodd" clip-rule="evenodd" d="M6 2C4.9 2 4.01 2.9 4.01 4L4 20C4 21.1 4.89 22 5.99 22H18C19.1 22 20 21.1 20 20V8L14 2H6Z" fill="white"/>
</mask>
<g mask="url(#mask0)">
<rect x="-13" y="-13" width="50" height="50" fill="#1A83F7"/>
<mask id="mask1" mask-type="alpha" maskUnits="userSpaceOnUse" x="-13" y="-13" width="50" height="50">
<rect x="-13" y="-13" width="50" height="50" fill="white"/>
</mask>
<g mask="url(#mask1)">
</g>
<rect x="9" y="6" width="5" height="1" fill="white"/>
<rect x="9" y="8" width="5" height="1" fill="white"/>
<rect x="9" y="10" width="5" height="1" fill="white"/>
<rect x="9" y="12" width="5" height="1" fill="white"/>
<rect x="9" y="14" width="5" height="1" fill="white"/>
<rect x="10.5" y="16.5" width="2" height="2" stroke="white"/>
</g>
</svg>
