<?xml version="1.0" encoding="UTF-8"?>
<svg width="98px" height="98px" viewBox="0 0 98 98" version="1.1" xmlns="http://www.w3.org/2000/svg" xmlns:xlink="http://www.w3.org/1999/xlink">
    <!-- Generator: Sketch 47.1 (45422) - http://www.bohemiancoding.com/sketch -->
    <title>noun_619454_cc</title>
    <desc>Created with Sketch.</desc>
    <defs></defs>
    <g id="OnFLy---Content-request" stroke="none" stroke-width="1" fill="none" fill-rule="evenodd">
        <g id="00" transform="translate(-540.000000, -373.000000)">
            <g id="Group-6" transform="translate(420.000000, 292.000000)">
                <g id="noun_619454_cc" transform="translate(122.000000, 83.000000)">
                    <g id="Group">
                        <g id="Big-check">
                            <path d="M68.1333647,30.4757368 C59.3322129,39.6289727 50.5221499,48.7225807 41.7169009,57.8762271 L32.4843767,50.1924292 C31.8360131,49.7031934 30.9147837,49.8331226 30.4265137,50.482666 C29.9382436,51.1321068 30.0679164,52.0552611 30.7161775,52.5445995 L40.9851616,61.0072543 C41.5761661,61.4544119 42.4073621,61.3888315 42.9211365,60.8545412 C52.0242434,51.3872585 61.1295014,41.9788851 70.2369103,32.5070866 C70.8106045,31.9365681 70.8139846,31.0081797 70.2445923,30.4333507 C69.9499095,30.1358272 69.5419424,29.9788037 69.1241422,30.0023059 C68.7451619,30.0253976 68.3898422,30.1951472 68.1333647,30.4757368 Z" id="Fill-1" fill="#22C985" transform="translate(50.400069, 45.651742) rotate(2.000000) translate(-50.400069, -45.651742) "></path>
                            <circle id="Oval-3" stroke="#22C985" stroke-width="3" cx="47" cy="47" r="47"></circle>
                        </g>
                    </g>
                </g>
            </g>
        </g>
    </g>
</svg>