<?xml version="1.0" encoding="UTF-8"?>
<svg width="20px" height="20px" viewBox="0 0 20 20" version="1.1" xmlns="http://www.w3.org/2000/svg" xmlns:xlink="http://www.w3.org/1999/xlink">
    <!-- Generator: Sketch 47.1 (45422) - http://www.bohemiancoding.com/sketch -->
    <title>Group</title>
    <desc>Created with Sketch.</desc>
    <defs></defs>
    <g id="Symbols" stroke="none" stroke-width="1" fill="none" fill-rule="evenodd">
        <g id="Icon/add-to-librairy/added" transform="translate(-2.000000, -2.000000)">
            <g id="Group">
                <g id="ic_library_add_black_24px">
                    <polygon id="Shape" points="0 0 24 0 24 24 0 24"></polygon>
                    <path d="M4,6 L2,6 L2,20 C2,21.1 2.9,22 4,22 L18,22 L18,20 L4,20 L4,6 Z M20,2 L8,2 C6.9,2 6,2.9 6,4 L6,16 C6,17.1 6.9,18 8,18 L20,18 C21.1,18 22,17.1 22,16 L22,4 C22,2.9 21.1,2 20,2 Z M19,11 L15,11 L15,15 L13,15 L13,11 L9,11 L9,9 L13,9 L13,5 L15,5 L15,9 L19,9 L19,11 Z" id="Shape" fill="#BDC5C8"></path>
                </g>
                <path d="M4,6 L2,6 L2,20 C2,21.1 2.9,22 4,22 L18,22 L18,20 L4,20 L4,6 Z M20,2 L8,2 C6.9,2 6,2.9 6,4 L6,16 C6,17.1 6.9,18 8,18 L20,18 C21.1,18 22,17.1 22,16 L22,4 C22,2.9 21.1,2 20,2 Z" id="Shape" fill="#6FC7A1"></path>
                <polygon id="Shape" stroke="#FFFFFF" fill="#FFFFFF" points="12.0240045 12.8462192 9.71977629 10.5419911 8.93512304 11.3211186 12.0240045 14.41 18.654877 7.77912752 17.8757494 7"></polygon>
            </g>
        </g>
    </g>
</svg>