<?xml version="1.0" encoding="UTF-8" standalone="no"?>
<!DOCTYPE svg PUBLIC "-//W3C//DTD SVG 1.1//EN" "http://www.w3.org/Graphics/SVG/1.1/DTD/svg11.dtd">
<svg width="100%" height="100%" viewBox="0 0 104 79" version="1.1" xmlns="http://www.w3.org/2000/svg" xmlns:xlink="http://www.w3.org/1999/xlink" xml:space="preserve" xmlns:serif="http://www.serif.com/" style="fill-rule:evenodd;clip-rule:evenodd;stroke-linejoin:round;stroke-miterlimit:1.41421;">
    <g transform="matrix(1,0,0,1.56295,0,0.056224)">
        <rect x="-0.084" y="-0.1" width="58.226" height="4.095" style="fill:rgb(6,186,236);"/>
    </g>
    <g transform="matrix(1,0,0,1.56295,0,21.4562)">
        <rect x="-0.084" y="-0.1" width="58.226" height="4.095" style="fill:rgb(6,186,236);"/>
    </g>
    <g transform="matrix(0.789022,0,0,1.56098,-0.0177371,42.8032)">
        <rect x="-0.084" y="-0.1" width="58.226" height="4.095" style="fill:rgb(6,186,236);"/>
    </g>
    <path d="M72.824,29.063C83.297,29.063 91.8,37.566 91.8,48.039C91.8,58.512 83.297,67.015 72.824,67.015C62.351,67.015 53.848,58.512 53.848,48.039C53.848,37.566 62.351,29.063 72.824,29.063ZM72.824,33.657C80.761,33.657 87.205,40.102 87.205,48.039C87.205,55.977 80.761,62.421 72.824,62.421C64.886,62.421 58.442,55.977 58.442,48.039C58.442,40.102 64.886,33.657 72.824,33.657Z" style="fill:rgb(6,186,236);"/>
    <g transform="matrix(0.707107,0.707107,-0.707107,0.707107,68.7419,-42.7441)">
        <rect x="83.337" y="59.414" width="5.427" height="3.738" style="fill:rgb(6,186,236);"/>
    </g>
    <g transform="matrix(0.7408,0.7408,-0.80268,0.80268,85.0252,-53.6684)">
        <path d="M99.421,69.123C99.421,68.153 98.568,67.366 97.518,67.366L81.873,67.366C80.822,67.366 79.97,68.153 79.97,69.123L79.97,72.635C79.97,73.605 80.822,74.392 81.873,74.392L97.518,74.392C98.568,74.392 99.421,73.605 99.421,72.635L99.421,69.123Z" style="fill:rgb(6,186,236);"/>
    </g>
</svg>
