<svg width="22" height="22" viewBox="0 0 22 22" fill="none" xmlns="http://www.w3.org/2000/svg">
<path fill-rule="evenodd" clip-rule="evenodd" d="M2.06662 12.0675C1.47779 11.478 1.47779 10.5229 2.06662 9.93333L9.93329 2.0675C10.2159 1.78415 10.5997 1.62491 11 1.62491C11.4002 1.62491 11.784 1.78415 12.0666 2.0675L19.9333 9.93333C20.5221 10.5229 20.5221 11.478 19.9333 12.0675L12.0666 19.9333C11.4774 20.5221 10.5225 20.5221 9.93329 19.9333L2.06662 12.0675Z" stroke="#42526E" stroke-width="1.5" stroke-linecap="round" stroke-linejoin="round"/>
<path d="M11 14.75C10.8274 14.75 10.6875 14.8899 10.6875 15.0625C10.6875 15.2351 10.8274 15.375 11 15.375C11.1726 15.375 11.3125 15.2351 11.3125 15.0625C11.3125 14.8899 11.1726 14.75 11 14.75V14.75" stroke="#42526E" stroke-width="1.5" stroke-linecap="round" stroke-linejoin="round"/>
<path d="M11 12.25V6" stroke="#42526E" stroke-width="1.5" stroke-linecap="round"/>
</svg>
