<?xml version="1.0" encoding="UTF-8"?>
<svg width="44px" height="45px" viewBox="0 0 44 45" version="1.1" xmlns="http://www.w3.org/2000/svg" xmlns:xlink="http://www.w3.org/1999/xlink">
    <!-- Generator: Sketch 48.2 (47327) - http://www.bohemiancoding.com/sketch -->
    <title>Shape</title>
    <desc>Created with Sketch.</desc>
    <defs></defs>
    <g id="02_Dictionnaire" stroke="none" stroke-width="1" fill="none" fill-rule="evenodd" transform="translate(-112.000000, -265.000000)">
        <g id="Group-5" transform="translate(62.000000, 211.000000)" fill="#FAFAFA" fill-rule="nonzero">
            <g id="Group-4" transform="translate(0.634146, 0.611111)">
                <path d="M76.5085948,92.0076262 L76.5085948,93.3129215 C76.5085948,94.3481557 75.7434217,95.2033492 74.7531977,95.3383797 L74.4381264,96.5086445 C74.2580856,97.1387871 73.6729533,97.5888889 73.0428107,97.5888889 L69.8920979,97.5888889 C69.2169451,97.5888889 68.6318127,97.1387871 68.4967822,96.5086445 L68.1817109,95.3383797 C67.1914869,95.2033492 66.4263137,94.3481557 66.4263137,93.3129215 L66.4263137,92.0076262 C66.4263137,91.3324734 66.9664359,90.747341 67.6865989,90.747341 L75.2933199,90.747341 C75.9684726,90.7923512 76.5085948,91.3324734 76.5085948,92.0076262 Z M82.3599186,74.5886852 C82.3599186,77.5143471 81.1896539,80.2149581 79.2992262,82.150396 C77.8589003,83.6357321 76.9136865,85.5261598 76.5986152,87.5966282 C76.4635846,88.4518217 75.6984115,89.1269744 74.7982078,89.1269744 L68.0466803,89.1269744 C67.1464767,89.1269744 66.3813036,88.4968319 66.246273,87.5966282 C65.9312017,85.5711699 64.9859879,83.6357321 63.545662,82.150396 C61.7002445,80.2149581 60.5299797,77.6043675 60.4849695,74.7237158 C60.4399594,68.647341 65.256049,63.741231 71.2874135,63.6962209 C77.4538087,63.6512107 82.3599186,68.5573207 82.3599186,74.5886852 Z M72.6827292,68.0171985 C72.6827292,67.3420457 72.142607,66.8019235 71.4674543,66.8019235 C67.1464767,66.8019235 63.5906722,70.3127178 63.5906722,74.6787056 C63.5906722,75.3538583 64.1307944,75.8939805 64.8059471,75.8939805 C65.4810999,75.8939805 66.0212221,75.3538583 66.0212221,74.6787056 C66.0212221,71.7080335 68.451772,69.2774836 71.4224441,69.2774836 C72.142607,69.2324734 72.6827292,68.6923512 72.6827292,68.0171985 Z M71.4674543,60.1404164 C72.142607,60.1404164 72.6827292,59.6002942 72.6827292,58.9251414 L72.6827292,54.6041638 C72.6827292,53.9290111 72.142607,53.3888889 71.4674543,53.3888889 C70.7923015,53.3888889 70.2521793,53.9290111 70.2521793,54.6041638 L70.2521793,58.9251414 C70.2521793,59.6002942 70.7923015,60.1404164 71.4674543,60.1404164 Z M57.0191854,74.5886852 C57.0191854,73.9135325 56.4790632,73.3734103 55.8039105,73.3734103 L51.4829329,73.3734103 C50.8077801,73.3734103 50.2676579,73.9135325 50.2676579,74.5886852 C50.2676579,75.263838 50.8077801,75.8039602 51.4829329,75.8039602 L55.8039105,75.8039602 C56.434053,75.8039602 57.0191854,75.263838 57.0191854,74.5886852 Z M91.4519757,73.3734103 L87.1309981,73.3734103 C86.4558453,73.3734103 85.9157231,73.9135325 85.9157231,74.5886852 C85.9157231,75.263838 86.4558453,75.8039602 87.1309981,75.8039602 L91.4519757,75.8039602 C92.1271284,75.8039602 92.6672506,75.263838 92.6672506,74.5886852 C92.7122608,73.9135325 92.1721386,73.3734103 91.4519757,73.3734103 Z M59.4947455,84.8059968 L56.434053,87.8666893 C55.938941,88.3618013 55.938941,89.1269744 56.434053,89.6220864 C56.659104,89.8471374 56.9741752,89.9821679 57.2892465,89.9821679 C57.6043178,89.9821679 57.9193891,89.8471374 58.14444,89.6220864 L61.2051325,86.561394 C61.7002445,86.066282 61.7002445,85.3011088 61.2051325,84.8059968 C60.7550306,84.355895 59.9898575,84.355895 59.4947455,84.8059968 Z M82.5849695,64.7314551 C82.9000408,64.7314551 83.2151121,64.5964245 83.440163,64.3713736 L86.5008555,61.3106811 C86.9959675,60.8155691 86.9959675,60.050396 86.5008555,59.555284 C86.0057435,59.060172 85.2405704,59.060172 84.7454583,59.555284 L81.6847659,62.6159765 C81.1896539,63.1110885 81.1896539,63.8762616 81.6847659,64.3713736 C81.954827,64.5964245 82.2698983,64.7314551 82.5849695,64.7314551 Z M59.4947455,64.3713736 C59.7197964,64.5964245 60.0348677,64.7314551 60.349939,64.7314551 C60.6650103,64.7314551 60.9800816,64.5964245 61.2051325,64.3713736 C61.7002445,63.8762616 61.7002445,63.1110885 61.2051325,62.6159765 L58.14444,59.555284 C57.649328,59.060172 56.8841549,59.060172 56.3890429,59.555284 C55.8939308,60.050396 55.8939308,60.8155691 56.3890429,61.3106811 L59.4947455,64.3713736 Z M83.440163,84.8059968 C82.945051,84.3108848 82.1798779,84.3108848 81.6847659,84.8059968 C81.1896539,85.3011088 81.1896539,86.066282 81.6847659,86.561394 L84.7454583,89.6220864 C84.9705093,89.8471374 85.2855805,89.9821679 85.6006518,89.9821679 C85.9157231,89.9821679 86.2307944,89.8471374 86.4558453,89.6220864 C86.9509573,89.1269744 86.9509573,88.3618013 86.4558453,87.8666893 L83.440163,84.8059968 Z" id="Shape"></path>
            </g>
        </g>
    </g>
</svg>