<?xml version="1.0" encoding="UTF-8"?>
<svg width="52px" height="65px" viewBox="0 0 52 65" version="1.1" xmlns="http://www.w3.org/2000/svg" xmlns:xlink="http://www.w3.org/1999/xlink">
    <!-- Generator: Sketch 48.2 (47327) - http://www.bohemiancoding.com/sketch -->
    <title>AutorizeAccess</title>
    <desc>Created with Sketch.</desc>
    <defs>
        <linearGradient x1="98.9420573%" y1="0%" x2="0.944661458%" y2="100%" id="linearGradient-1">
            <stop stop-color="#4C98F3" offset="0%"></stop>
            <stop stop-color="#06BAEC" offset="100%"></stop>
        </linearGradient>
        <path d="M33.7488232,21.2431611 C29.4067245,25.9216106 25.0602295,30.5695828 20.7161095,35.2482421 L16.1611908,31.3208594 C15.8413169,31.0707986 15.386823,31.1372087 15.1459322,31.4692067 C14.9050414,31.8011523 14.9690162,32.2729997 15.2888396,32.5231129 L20.3551017,36.848589 C20.6466771,37.0771425 21.0567524,37.0436228 21.310226,36.7705335 C25.8012959,31.9315667 30.2934271,27.12271 34.7866194,22.2814351 C35.0696548,21.9898287 35.0713224,21.5153061 34.7904094,21.2214965 C34.645026,21.0694247 34.443753,20.9891661 34.2376289,21.0011786 C34.0506568,21.0129814 33.8753578,21.0997446 33.7488232,21.2431611 Z" id="path-2"></path>
    </defs>
    <g id="00_Manage-Users---MEMBERS" stroke="none" stroke-width="1" fill="none" fill-rule="evenodd" transform="translate(-965.000000, -186.000000)">
        <g id="Group-6" transform="translate(240.000000, 146.000000)">
            <g id="Group-4" transform="translate(560.000000, 43.000000)">
                <g id="AutorizeAccess" transform="translate(167.000000, 0.000000)">
                    <path d="M24,-1.09534557 L49,10.0788969 L49,26.8181818 C49,42.2180763 38.3967073,56.4942624 24.2384876,59.9711455 L24,60.0297118 L23.7615124,59.9711455 C9.60329267,56.4942624 -1,42.2180763 -1,26.8181818 L-1,10.0788969 L24,-1.09534557 Z" id="Shape" stroke="url(#linearGradient-1)" stroke-width="2" fill-rule="nonzero"></path>
                    <g id="Fill-1" transform="translate(25.000000, 29.000000) rotate(2.000000) translate(-25.000000, -29.000000) ">
                        <use fill="url(#linearGradient-1)" fill-rule="evenodd" xlink:href="#path-2"></use>
                        <path stroke="url(#linearGradient-1)" stroke-width="0.2" d="M33.6746709,21.1760579 C33.8185667,21.0134555 34.018153,20.9148341 34.231811,20.901348 C34.4673489,20.8876213 34.6971308,20.9792156 34.8626886,21.1523899 C35.1807677,21.4850719 35.178862,22.0208931 34.859916,22.3494617 C32.9377056,24.4205836 31.5562767,25.9053365 27.8720893,29.8621215 C24.7697468,33.1940102 23.203011,34.8781265 21.3835199,36.8385629 C21.0947457,37.1496847 20.6259994,37.1879945 20.2901701,36.9246409 L15.2272367,32.6018853 C14.8648408,32.3184788 14.792615,31.7858145 15.0649935,31.4104793 C15.3390032,31.0328364 15.8580984,30.9569872 16.2264917,31.2451244 L20.7084126,35.1095664 C22.0436668,33.6715818 23.4198022,32.1925327 25.2145717,30.265703 C25.7431679,29.6982124 26.1985098,29.2094714 27.182417,28.1534585 C30.3057665,24.8011741 31.857248,23.1342604 33.6746703,21.1760572 Z"></path>
                    </g>
                </g>
            </g>
        </g>
    </g>
</svg>