<?xml version="1.0" encoding="UTF-8"?>
<svg width="140px" height="120px" viewBox="0 0 140 120" version="1.1" xmlns="http://www.w3.org/2000/svg" xmlns:xlink="http://www.w3.org/1999/xlink">
    <!-- Generator: Sketch 48.2 (47327) - http://www.bohemiancoding.com/sketch -->
    <title>AvionsMultiples</title>
    <desc>Created with Sketch.</desc>
    <defs>
        <linearGradient x1="98.9420573%" y1="0%" x2="0.944661458%" y2="100%" id="linearGradient-1">
            <stop stop-color="#4C98F3" offset="0%"></stop>
            <stop stop-color="#06BAEC" offset="100%"></stop>
        </linearGradient>
    </defs>
    <g id="00_Manage-Users---INVITE" stroke="none" stroke-width="1" fill="none" fill-rule="evenodd" transform="translate(-673.000000, -230.000000)">
        <g id="AvionsMultiples" transform="translate(674.000000, 230.000000)" fill="url(#linearGradient-1)" fill-rule="nonzero">
            <g id="noun_1338813_cc" transform="translate(21.000000, 0.000000)">
                <path d="M98.9988534,1.71989033 C99.0050662,1.5513254 98.9860055,1.38278047 98.9423112,1.21991421 L98.9423112,1.08355709 C98.887225,0.933307908 98.8110666,0.791733832 98.7161427,0.663122621 C98.7161427,0.663122621 98.7161427,0.663122621 98.7161427,0.583580966 L98.6596005,0.50403931 C98.4069941,0.244216798 98.0779278,0.0729125522 97.7210009,0.0154262832 L97.4835239,0.0154262832 C97.3334396,-0.00514209441 97.1812711,-0.00514209441 97.0311868,0.0154262832 L96.8841772,0.0154262832 L96.748476,0.0154262832 L1.12440121,34.2069751 C0.531017327,34.4205055 0.104385419,34.9470313 0.01657851,35.5741894 C-0.0712283985,36.2013475 0.194269554,36.8257159 0.705989344,37.1954687 L22.3616307,52.7174546 L25.0756536,81.4206292 C25.0842481,81.547779 25.1070072,81.6735592 25.1435042,81.7956113 C25.1679711,81.8735285 25.1982115,81.949495 25.2339716,82.0228731 C25.4047726,82.3913496 25.7018018,82.6857813 26.0707954,82.852379 L26.1386459,82.852379 C26.5043386,82.983278 26.9037962,82.983278 27.2694888,82.852379 L27.5521996,82.738748 L27.7670597,82.6023909 L46.1093314,69.7961844 L64.0558081,82.6819326 C64.4772838,82.9848106 65.0134146,83.0775006 65.5113938,82.9335841 C66.009373,82.7896676 66.414576,82.4249314 66.611513,81.9433315 L98.8857691,2.3107712 C98.9496341,2.14725152 98.9877853,1.97474103 98.9988534,1.79943199 C98.9988534,1.79943199 98.9988534,1.71989033 98.9988534,1.71989033 Z M85.4287387,7.69687759 L23.9335023,49.7403241 L5.31982834,36.3205105 L85.4287387,7.69687759 Z M25.7541594,52.6265499 L80.8148997,14.9919837 L34.5181918,58.9785192 C34.3489054,59.1386476 34.2141855,59.332035 34.1223968,59.5466739 L27.7896766,74.4436897 L25.7541594,52.6265499 Z M30.6394007,76.4890465 L36.4519331,62.8533342 L43.2369905,67.7167382 L30.6394007,76.4890465 Z M64.3159019,78.6480343 L38.3517492,60.0352869 L92.7905259,8.31048465 L64.3159019,78.6480343 Z" id="Shape"></path>
            </g>
            <g id="noun_1338813_cc-copy" opacity="0.695822011" transform="translate(87.000000, 76.000000)" stroke="url(#linearGradient-1)">
                <path d="M50.9994093,0.891027521 C51.0026098,0.803698703 50.9927907,0.716380244 50.9702815,0.632003747 L50.9702815,0.5613609 C50.9419038,0.483520964 50.9026707,0.410175359 50.8537705,0.343545454 C50.8537705,0.343545454 50.8537705,0.343545454 50.8537705,0.302337127 L50.8246427,0.261128799 C50.6945121,0.126521956 50.5249931,0.0377739728 50.3411217,0.00799192987 L50.218785,0.00799192987 C50.1414689,-0.00266397662 50.063079,-0.00266397662 49.9857629,0.00799192987 L49.9100307,0.00799192987 L49.840124,0.00799192987 L0.579236989,17.7216859 C0.273554381,17.8323101 0.0537743065,18.1050885 0.00854044454,18.4300017 C-0.0366934174,18.754915 0.100078255,19.0783829 0.36369148,19.2699416 L11.5196279,27.3114524 L12.917761,42.1817717 C12.9221884,42.2476445 12.9339128,42.3128078 12.9527143,42.3760396 C12.9653185,42.4164063 12.9808968,42.4557625 12.9993187,42.4937776 C13.0873071,42.6846751 13.2403221,42.837212 13.4304097,42.9235216 L13.4653631,42.9235216 C13.6537502,42.9913368 13.8595314,42.9913368 14.0479185,42.9235216 L14.1935574,42.8646526 L14.3042429,42.7940098 L23.7532919,36.159469 L32.9984466,42.8352181 C33.2155705,42.9921308 33.491759,43.0401509 33.7482938,42.9655918 C34.0048285,42.8910326 34.2135695,42.7020729 34.3150218,42.4525693 L50.9411538,1.19714653 C50.9740539,1.11243151 50.9937076,1.0230586 50.9994093,0.932235848 C50.9994093,0.932235848 50.9994093,0.891027521 50.9994093,0.891027521 Z M44.0087442,3.98753899 L12.32938,25.7690836 L2.74051763,18.81665 L44.0087442,3.98753899 Z M13.2672942,27.2643572 L41.631918,7.76693132 L17.7820988,30.5551365 C17.6948907,30.6380945 17.6254895,30.7382832 17.5782044,30.8494817 L14.315894,38.5672127 L13.2672942,27.2643572 Z M15.7839337,39.6268554 L18.7782686,32.5625707 L22.2736011,35.0821656 L15.7839337,39.6268554 Z M33.1324343,40.7453672 L19.7569617,31.1026185 L47.80118,4.3054318 L33.1324343,40.7453672 Z" id="Shape"></path>
            </g>
            <g id="noun_1338813_cc-copy-2" opacity="0.47899683" transform="translate(0.000000, 83.000000)" stroke="url(#linearGradient-1)">
                <path d="M32.9996178,0.580203967 C33.0016887,0.52333869 32.9953352,0.466480159 32.9807704,0.411537324 L32.9807704,0.36553733 C32.9624083,0.31485086 32.9370222,0.267090931 32.9053809,0.223704017 C32.9053809,0.223704017 32.9053809,0.223704017 32.9053809,0.196870687 L32.8865335,0.170037358 C32.8023314,0.0823863898 32.6926426,0.0245970056 32.573667,0.00520404736 L32.494508,0.00520404736 C32.4444799,-0.00173468245 32.393757,-0.00173468245 32.3437289,0.00520404736 L32.2947257,0.00520404736 L32.249492,0.00520404736 L0.374800404,11.5397024 C0.177005776,11.6117368 0.0347951395,11.78936 0.00552617,12.0009314 C-0.0237427995,12.2125028 0.0647565181,12.4231331 0.235329781,12.547869 L7.4538769,17.7842016 L8.35855121,27.4672002 C8.36141603,27.5100941 8.3690024,27.552526 8.38116807,27.5937002 C8.38932371,27.6199855 8.39940384,27.6456128 8.41132388,27.6703668 C8.46825753,27.7946721 8.56726727,27.8939985 8.69026513,27.9502001 L8.71288198,27.9502001 C8.83477955,27.9943588 8.96793205,27.9943588 9.08982961,27.9502001 L9.18406652,27.9118668 L9.25568657,27.8658668 L15.3697771,23.5457008 L21.351936,27.8927001 C21.4924279,27.9948759 21.6711382,28.0261448 21.8371313,27.9775946 C22.0031243,27.9290445 22.138192,27.806001 22.2038377,27.6435335 L32.961923,0.779537272 C32.9832114,0.724374006 32.9959284,0.666177696 32.9996178,0.607037296 C32.9996178,0.607037296 32.9996178,0.580203967 32.9996178,0.580203967 Z M28.4762462,2.59653702 L7.9778341,16.7798684 L1.77327611,12.2527023 L28.4762462,2.59653702 Z M8.58471979,17.7535349 L26.9382999,5.05753667 L11.5060639,19.8963679 C11.4496351,19.9503871 11.4047285,20.0156263 11.3741323,20.0880346 L9.26322552,25.1135339 L8.58471979,17.7535349 Z M10.2131336,25.8035338 L12.1506444,21.2035344 L14.4123302,22.8442009 L10.2131336,25.8035338 Z M21.438634,26.531867 L12.7839164,20.2528679 L30.9301753,2.80353699 L21.438634,26.531867 Z" id="Shape"></path>
            </g>
        </g>
    </g>
</svg>