<?xml version="1.0" encoding="UTF-8"?>
<svg width="67px" height="56px" viewBox="0 0 67 56" version="1.1" xmlns="http://www.w3.org/2000/svg" xmlns:xlink="http://www.w3.org/1999/xlink">
    <!-- Generator: Sketch 48.2 (47327) - http://www.bohemiancoding.com/sketch -->
    <title>AvionSimple</title>
    <desc>Created with Sketch.</desc>
    <defs>
        <linearGradient x1="98.9420573%" y1="0%" x2="0.944661458%" y2="100%" id="linearGradient-1">
            <stop stop-color="#4C98F3" offset="0%"></stop>
            <stop stop-color="#06BAEC" offset="100%"></stop>
        </linearGradient>
    </defs>
    <g id="00_Manage-Users---MEMBERS" stroke="none" stroke-width="1" fill="none" fill-rule="evenodd" transform="translate(-480.000000, -183.000000)">
        <g id="Group-6" transform="translate(240.000000, 146.000000)" fill="url(#linearGradient-1)" fill-rule="nonzero">
            <g id="Group-7" transform="translate(79.000000, 37.000000)">
                <g id="AvionSimple" transform="translate(161.000000, 0.000000)">
                    <path d="M66.999224,1.16040793 C67.0034286,1.04667738 66.9905289,0.932960318 66.9609581,0.823074648 L66.9609581,0.731074661 C66.9236775,0.629701721 66.872136,0.534181863 66.8078945,0.447408034 C66.8078945,0.447408034 66.8078945,0.447408034 66.8078945,0.393741374 L66.7696286,0.340074715 C66.5986728,0.16477278 66.3759713,0.0491940111 66.1344148,0.0104080947 L65.973698,0.0104080947 C65.8721258,-0.0034693649 65.7691431,-0.0034693649 65.6675708,0.0104080947 L65.5680795,0.0104080947 L65.4762414,0.0104080947 L0.760958397,23.0794049 C0.359375363,23.2234736 0.0706446772,23.5787199 0.0112197997,24.0018627 C-0.0482050778,24.4250055 0.131475355,24.8462661 0.477790768,25.0957379 L15.1336289,35.5684031 L16.9703919,54.9344004 C16.9762083,55.0201882 16.9916109,55.105052 17.0163109,55.1874004 C17.0328694,55.2399711 17.0533351,55.2912255 17.0775364,55.3407337 C17.1931289,55.5893443 17.3941487,55.787997 17.6438716,55.9004003 L17.6897907,55.9004003 C17.9372797,55.9887177 18.2076196,55.9887177 18.4551086,55.9004003 L18.6464381,55.8237336 L18.7918485,55.7317336 L31.2053051,47.0914015 L43.3509004,55.7854003 C43.6361416,55.9897518 43.9989775,56.0522895 44.3359938,55.9551893 C44.67301,55.858089 44.9472383,55.6120019 45.0805189,55.287067 L66.9226922,1.55907454 C66.965914,1.44874801 66.9917335,1.33235539 66.999224,1.21407459 C66.999224,1.21407459 66.999224,1.16040793 66.999224,1.16040793 Z M57.815409,5.19307404 L16.1974208,33.5597367 L3.60028786,24.5054047 L57.815409,5.19307404 Z M17.4295826,35.5070698 L54.6929119,10.1150733 L23.3607964,39.7927359 C23.2462289,39.9007743 23.1550548,40.0312525 23.0929352,40.1760691 L18.8071549,50.2270677 L17.4295826,35.5070698 Z M20.735756,51.6070675 L24.6694901,42.4070688 L29.2613976,45.6884017 L20.735756,51.6070675 Z M43.5269235,53.063734 L25.9552242,40.5057358 L62.7976286,5.60707398 L43.5269235,53.063734 Z" id="Shape"></path>
                </g>
            </g>
        </g>
    </g>
</svg>