<?xml version="1.0" encoding="UTF-8" standalone="no"?>
<!DOCTYPE svg PUBLIC "-//W3C//DTD SVG 1.1//EN" "http://www.w3.org/Graphics/SVG/1.1/DTD/svg11.dtd">
<svg width="100%" height="100%" viewBox="0 0 1390 238" version="1.1" xmlns="http://www.w3.org/2000/svg" xmlns:xlink="http://www.w3.org/1999/xlink" xml:space="preserve" xmlns:serif="http://www.serif.com/" style="fill-rule:evenodd;clip-rule:evenodd;stroke-linecap:round;stroke-linejoin:round;">
    <g id="Header-V2">
        <g id="Header">
            <g id="Header-Search">
                <path id="Fill-1-Copy-3" d="M958.835,331C881.731,331 819,269.062 819,192.93C819,158.615 831.827,125.738 855.119,100.353C878.287,75.103 909.793,59.394 943.834,56.122L948.592,55.665L950.805,51.481C981.628,-6.797 1041.67,-43 1107.5,-43C1149.24,-43 1188.24,-29.037 1220.28,-2.621C1251.24,22.905 1272.88,58.47 1281.22,97.523L1282.61,104.015L1289.32,104.425C1349.14,108.078 1396,157.557 1396,217.068C1396,279.891 1344.53,331 1281.27,331L958.835,331Z" style="fill:none;stroke:url(#_Linear1);stroke-width:100px;"/>
                <g id="Fill-1-Copy-4" transform="matrix(0.829038,-0.559193,0.559193,0.829038,-137.73,34.8257)">
                    <path d="M-176.807,450.16C-262.33,450.16 -331.91,381.432 -331.91,296.954C-331.91,258.878 -317.683,222.396 -291.847,194.229C-266.15,166.21 -231.204,148.78 -193.447,145.149L-188.169,144.641L-185.714,139.999C-151.526,75.332 -84.929,35.16 -11.91,35.16C34.388,35.16 77.644,50.654 113.18,79.966C147.52,108.29 171.527,147.754 180.782,191.088L182.319,198.292L189.759,198.746C256.114,202.801 308.09,257.703 308.09,323.738C308.09,393.449 251.004,450.16 180.836,450.16L-176.807,450.16Z" style="fill:none;stroke:url(#_Linear2);stroke-width:100px;"/>
                </g>
                <g id="Fill-1-Copy-5" transform="matrix(-0.325568,-0.945519,0.945519,-0.325568,914.62,322.635)">
                    <path d="M407.48,42.621C321.957,42.621 252.377,-26.107 252.377,-110.585C252.377,-148.661 266.604,-185.143 292.44,-213.31C318.138,-241.329 353.083,-258.759 390.84,-262.39L396.118,-262.897L398.573,-267.54C432.761,-332.207 499.358,-372.379 572.377,-372.379C618.675,-372.379 661.931,-356.885 697.467,-327.573C731.807,-299.249 755.814,-259.785 765.069,-216.451L766.607,-209.247L774.046,-208.793C840.401,-204.738 892.377,-149.836 892.377,-83.8C892.377,-14.09 835.291,42.621 765.123,42.621L407.48,42.621Z" style="fill:none;stroke:url(#_Linear3);stroke-width:100px;"/>
                </g>
            </g>
        </g>
    </g>
    <defs>
        <linearGradient id="_Linear1" x1="0" y1="0" x2="1" y2="0" gradientUnits="userSpaceOnUse" gradientTransform="matrix(-451.193,-321.495,321.495,-451.193,1396,331)"><stop offset="0" style="stop-color:rgb(102,253,173);stop-opacity:1"/><stop offset="1" style="stop-color:rgb(44,165,247);stop-opacity:1"/></linearGradient>
        <linearGradient id="_Linear2" x1="0" y1="0" x2="1" y2="0" gradientUnits="userSpaceOnUse" gradientTransform="matrix(-511.982,-364.955,364.955,-511.982,308.09,450.16)"><stop offset="0" style="stop-color:rgb(102,253,173);stop-opacity:0.48058"/><stop offset="1" style="stop-color:rgb(24,189,233);stop-opacity:0.48058"/></linearGradient>
        <linearGradient id="_Linear3" x1="0" y1="0" x2="1" y2="0" gradientUnits="userSpaceOnUse" gradientTransform="matrix(-511.982,-364.955,364.955,-511.982,892.377,42.6213)"><stop offset="0" style="stop-color:rgb(102,253,173);stop-opacity:0.619699"/><stop offset="1" style="stop-color:rgb(24,189,233);stop-opacity:0.619699"/></linearGradient>
    </defs>
</svg>
