<?xml version="1.0" encoding="UTF-8"?>
<svg width="27px" height="27px" viewBox="0 0 27 27" version="1.1" xmlns="http://www.w3.org/2000/svg" xmlns:xlink="http://www.w3.org/1999/xlink">
    <!-- Generator: Sketch 48.2 (47327) - http://www.bohemiancoding.com/sketch -->
    <title>Check_mapping_fait</title>
    <desc>Created with Sketch.</desc>
    <defs>
        <circle id="path-1" cx="13.5" cy="13.5" r="13.5"></circle>
    </defs>
    <g id="ICON-/-linké" stroke="none" stroke-width="1" fill="none" fill-rule="evenodd">
        <g id="Check_mapping_fait">
            <g id="Group-4">
                <g id="Oval">
                    <use fill="#22C985" fill-rule="evenodd" xlink:href="#path-1"></use>
                    <circle stroke="#FFFFFF" stroke-width="1" cx="13.5" cy="13.5" r="13"></circle>
                </g>
            </g>
            <path d="M19.3678985,8.35019237 C16.7727538,11.1304767 14.1749816,13.8926492 11.5786288,16.6730582 L8.85628784,14.3391139 C8.66510861,14.1905091 8.39347103,14.2299749 8.24949767,14.427273 C8.10552431,14.6245398 8.14376016,14.9049468 8.33490918,15.0535828 L11.3628651,17.6241039 C11.5371311,17.7599275 11.7822211,17.7400076 11.9337147,17.5777176 C14.6178952,14.7020418 17.3027099,11.8442598 19.9881588,8.96721243 C20.1573207,8.79391811 20.1583174,8.51192127 19.990424,8.33731765 C19.9035326,8.24694524 19.7832376,8.19924956 19.6600433,8.20638832 C19.5482956,8.2134024 19.4435245,8.26496361 19.3678985,8.35019237 Z" id="Fill-1" fill="#FFFFFF" transform="translate(14.138984, 12.959886) rotate(2.000000) translate(-14.138984, -12.959886) "></path>
        </g>
    </g>
</svg>