<?xml version="1.0" encoding="UTF-8"?>
<svg width="314px" height="263px" viewBox="0 0 314 263" version="1.1" xmlns="http://www.w3.org/2000/svg" xmlns:xlink="http://www.w3.org/1999/xlink">
    <!-- Generator: sketchtool 51.3 (57544) - http://www.bohemiancoding.com/sketch -->
    <title>C2B43516-91C0-4485-B23B-0386DA43BFF5</title>
    <desc>Created with sketchtool.</desc>
    <defs>
        <linearGradient x1="0.944661458%" y1="100%" x2="98.9420573%" y2="-1.10371781e-14%" id="linearGradient-1">
            <stop stop-color="#FF0844" offset="0%"></stop>
            <stop stop-color="#FFB199" offset="100%"></stop>
        </linearGradient>
        <circle id="path-2" cx="97.5" cy="97.5" r="97.5"></circle>
        <filter x="-27.4%" y="-26.4%" width="154.9%" height="154.9%" filterUnits="objectBoundingBox" id="filter-4">
            <feOffset dx="0" dy="2" in="SourceAlpha" result="shadowOffsetOuter1"></feOffset>
            <feGaussianBlur stdDeviation="17.5" in="shadowOffsetOuter1" result="shadowBlurOuter1"></feGaussianBlur>
            <feColorMatrix values="0 0 0 0 0   0 0 0 0 0   0 0 0 0 0  0 0 0 0.2 0" type="matrix" in="shadowBlurOuter1"></feColorMatrix>
        </filter>
        <path d="M197.084365,79 C185.458528,79 176,69.7258661 176,58.3263525 C176,53.1883986 177.93404,48.2655352 181.446079,44.4646821 C184.939333,40.6838441 189.689749,38.3317707 194.822388,37.841834 L195.539795,37.7733763 L195.8735,37.1469593 C200.520965,28.4207771 209.574048,23 219.5,23 C225.793655,23 231.673728,25.0907158 236.504465,29.0460339 C241.17249,32.8680625 244.436026,38.1934049 245.694076,44.0408824 L245.903086,45.0129239 L246.914408,45.0742747 C255.934504,45.6213563 263,53.0298725 263,61.9406874 C263,71.3473856 255.239877,79 245.701472,79 L197.084365,79 Z" id="path-5"></path>
        <filter x="-51.1%" y="-75.9%" width="202.3%" height="258.9%" filterUnits="objectBoundingBox" id="filter-6">
            <feOffset dx="0" dy="2" in="SourceAlpha" result="shadowOffsetOuter1"></feOffset>
            <feGaussianBlur stdDeviation="14.5" in="shadowOffsetOuter1" result="shadowBlurOuter1"></feGaussianBlur>
            <feColorMatrix values="0 0 0 0 0   0 0 0 0 0   0 0 0 0 0  0 0 0 0.1 0" type="matrix" in="shadowBlurOuter1"></feColorMatrix>
        </filter>
        <path d="M8.72456474,131 C3.91387378,131 0,127.190981 0,122.509038 C0,120.398807 0.800292437,118.376916 2.25355005,116.815852 C3.69903428,115.263007 5.66472388,114.296977 7.78857454,114.095753 L8.08543254,114.067637 L8.22351741,113.810358 C10.1466064,110.226391 13.8927095,108 18,108 C20.6042709,108 23.0374048,108.858687 25.0363303,110.483192 C26.9679271,112.052954 28.3183555,114.240148 28.8389282,116.641791 L28.9254149,117.041022 L29.3438928,117.06622 C33.0763466,117.290914 36,120.333698 36,123.993497 C36,127.856962 32.7889146,131 28.8419886,131 L8.72456474,131 Z" id="path-7"></path>
        <filter x="-100.0%" y="-156.5%" width="300.0%" height="413.0%" filterUnits="objectBoundingBox" id="filter-8">
            <feOffset dx="0" dy="0" in="SourceAlpha" result="shadowOffsetOuter1"></feOffset>
            <feGaussianBlur stdDeviation="12" in="shadowOffsetOuter1" result="shadowBlurOuter1"></feGaussianBlur>
            <feColorMatrix values="0 0 0 0 0   0 0 0 0 0   0 0 0 0 0  0 0 0 0.2 0" type="matrix" in="shadowBlurOuter1"></feColorMatrix>
        </filter>
        <path d="M30.8444981,47 C23.7620919,47 18,41.3692759 18,34.4481426 C18,31.3286705 19.1782083,28.3397892 21.3177265,26.0321284 C23.4458005,23.7366196 26.3397324,22.3085751 29.4665125,22.0111135 L29.9035535,21.9695499 L30.1068451,21.5892253 C32.9380594,16.2911861 38.4531556,13 44.5,13 C48.3340656,13 51.9161793,14.2693632 54.8590418,16.6708063 C57.7027816,18.9913236 59.6909123,22.2245673 60.4573109,25.7748215 L60.5846385,26.3649895 L61.2007311,26.4022382 C66.6957325,26.7343949 71,31.2324226 71,36.6425602 C71,42.3537698 66.2725687,47 60.4618165,47 L30.8444981,47 Z" id="path-9"></path>
        <filter x="-67.9%" y="-105.9%" width="235.8%" height="311.8%" filterUnits="objectBoundingBox" id="filter-10">
            <feOffset dx="0" dy="0" in="SourceAlpha" result="shadowOffsetOuter1"></feOffset>
            <feGaussianBlur stdDeviation="12" in="shadowOffsetOuter1" result="shadowBlurOuter1"></feGaussianBlur>
            <feColorMatrix values="0 0 0 0 0   0 0 0 0 0   0 0 0 0 0  0 0 0 0.2 0" type="matrix" in="shadowBlurOuter1"></feColorMatrix>
        </filter>
    </defs>
    <g id="Handoff" stroke="none" stroke-width="1" fill="none" fill-rule="evenodd">
        <g id="05.00---Manage-Object---supprimer-objet" transform="translate(-604.000000, -236.000000)">
            <g id="dialog-copy-2" transform="translate(468.000000, 207.000000)">
                <g id="Illu_supprimer" transform="translate(159.000000, 61.000000)">
                    <g id="Group" transform="translate(17.000000, 0.000000)">
                        <mask id="mask-3" fill="white">
                            <use xlink:href="#path-2"></use>
                        </mask>
                        <g id="Oval">
                            <use fill="black" fill-opacity="1" filter="url(#filter-4)" xlink:href="#path-2"></use>
                            <use fill="url(#linearGradient-1)" fill-rule="evenodd" xlink:href="#path-2"></use>
                        </g>
                        <path d="M138.069471,259 C99.9848341,259 69,228.527846 69,191.072301 C69,174.190452 75.3356485,158.01533 86.8406046,145.526813 C98.2840214,133.104059 113.845731,125.375818 130.659548,123.766026 L133.009674,123.541094 L134.102846,121.482866 C149.3273,92.8111249 178.98395,75 211.5,75 C232.117145,75 251.379455,81.8694947 267.204281,94.8655399 C282.496089,107.423634 293.186981,124.921188 297.308181,144.134328 L297.992868,147.328178 L301.305818,147.52976 C330.85441,149.327313 354,173.669581 354,202.947973 C354,233.855695 328.578907,259 297.33241,259 L138.069471,259 Z" id="Fill-1-Copy-3" stroke="#EB4658" stroke-width="101" opacity="0.337332589" stroke-linecap="round" stroke-linejoin="round" mask="url(#mask-3)"></path>
                        <path d="M-168.177843,259 C-214.948449,259 -253,221.572246 -253,175.567066 C-253,154.831751 -245.219379,134.964481 -231.090486,119.625324 C-217.037167,104.366942 -197.926296,94.8746461 -177.277748,92.8974015 L-174.391628,92.6211258 L-173.049136,90.0930856 C-154.352438,54.8767078 -117.931991,33 -78,33 C-52.6806991,33 -29.0252312,41.4375316 -9.59123368,57.4000653 C9.18818009,72.8246807 22.3173456,94.3162414 27.3784684,117.91499 L28.2193111,121.837871 L32.2878468,122.085466 C68.5755917,124.293331 97,154.191986 97,190.153489 C97,228.116235 65.781114,259 27.4082223,259 L-168.177843,259 Z" id="Fill-1-Copy-3" stroke="#EB4658" stroke-width="81" opacity="0.896875" stroke-linecap="round" stroke-linejoin="round" mask="url(#mask-3)"></path>
                    </g>
                    <g id="Fill-1-Copy-6" transform="translate(219.500000, 51.000000) scale(-1, 1) translate(-219.500000, -51.000000) ">
                        <use fill="black" fill-opacity="1" filter="url(#filter-6)" xlink:href="#path-5"></use>
                        <use fill="#FFFFFF" fill-rule="evenodd" xlink:href="#path-5"></use>
                    </g>
                    <g id="Fill-1-Copy-7" transform="translate(18.000000, 119.500000) scale(-1, 1) translate(-18.000000, -119.500000) ">
                        <use fill="black" fill-opacity="1" filter="url(#filter-8)" xlink:href="#path-7"></use>
                        <use fill="#FFFFFF" fill-rule="evenodd" xlink:href="#path-7"></use>
                    </g>
                    <g id="Fill-1-Copy-8" transform="translate(44.500000, 30.000000) scale(-1, 1) translate(-44.500000, -30.000000) ">
                        <use fill="black" fill-opacity="1" filter="url(#filter-10)" xlink:href="#path-9"></use>
                        <use fill="#FFFFFF" fill-rule="evenodd" xlink:href="#path-9"></use>
                    </g>
                    <g id="trash" transform="translate(64.000000, 42.000000)">
                        <g id="Group">
                            <path d="M90.9,102.9375 C90.9,105.733688 88.6392833,108 85.85,108 L15.15,108 C12.3607167,108 10.1,105.733688 10.1,102.9375 L10.1,28.6875 L90.9,28.6875 L90.9,102.9375 Z" id="Fill-6598" fill="#E2E4E5"></path>
                            <path d="M50.5,28.6875 L10.1,28.6875 L10.1,102.9375 C10.1,105.733688 12.3607167,108 15.15,108 L50.5,108 L50.5,28.6875 Z" id="Fill-6599" fill="#F0F0F0"></path>
                            <path d="M70.7,8.4375 L70.7,13.5 L63.9666667,13.5 L63.9666667,8.4375 C63.9666667,7.5110625 63.2091667,6.75 62.2833333,6.75 L38.7166667,6.75 C37.7908333,6.75 37.0333333,7.5110625 37.0333333,8.4375 L37.0333333,13.5 L30.3,13.5 L30.3,8.4375 C30.3,3.78 34.0706667,0 38.7166667,0 L62.2833333,0 C66.9293333,0 70.7,3.78 70.7,8.4375" id="Fill-6600" fill="#E2E4E5"></path>
                            <path d="M101,18 L101,26.25 C101,28.527 99.4917333,30.375 97.6333333,30.375 L3.36666667,30.375 C1.50826667,30.375 0,28.527 0,26.25 L0,18 C0,14.57625 2.25566667,11.8125 5.05,11.8125 L95.95,11.8125 C98.7443333,11.8125 101,14.57625 101,18" id="Fill-6601" fill="#FFFFFF"></path>
                            <polygon id="Fill-6602" fill="#CFD3D4" points="31.9833333 94.5 25.25 94.5 25.25 40.5 31.9833333 40.5"></polygon>
                            <polygon id="Fill-6603" fill="#CFD3D4" points="47.1333333 94.5 40.4 94.5 40.4 40.5 47.1333333 40.5"></polygon>
                            <polygon id="Fill-6604" fill="#CFD3D4" points="62.2833333 94.5 55.55 94.5 55.55 40.5 62.2833333 40.5"></polygon>
                            <polygon id="Fill-6605" fill="#CFD3D4" points="77.4333333 94.5 70.7 94.5 70.7 40.5 77.4333333 40.5"></polygon>
                        </g>
                    </g>
                </g>
            </g>
        </g>
    </g>
</svg>