<?xml version="1.0" encoding="UTF-8"?>
<svg width="20px" height="20px" viewBox="0 0 20 20" version="1.1" xmlns="http://www.w3.org/2000/svg" xmlns:xlink="http://www.w3.org/1999/xlink">
    <!-- Generator: Sketch 47.1 (45422) - http://www.bohemiancoding.com/sketch -->
    <title>ic_library_add_black_24px</title>
    <desc>Created with Sketch.</desc>
    <defs></defs>
    <g id="Symbols" stroke="none" stroke-width="1" fill="none" fill-rule="evenodd">
        <g id="Icon/add-to-librairy/suppress" transform="translate(-2.000000, -2.000000)">
            <g id="ic_library_add_black_24px">
                <polygon id="Shape" points="0 0 24 0 24 24 0 24"></polygon>
                <path d="M4,6 L2,6 L2,20 C2,21.1 2.9,22 4,22 L18,22 L18,20 L4,20 L4,6 Z M20,2 L8,2 C6.9,2 6,2.9 6,4 L6,16 C6,17.1 6.9,18 8,18 L20,18 C21.1,18 22,17.1 22,16 L22,4 C22,2.9 21.1,2 20,2 Z M18.2426407,7.17157288 L15.4142136,10 L18.2426407,12.8284271 L16.8284271,14.2426407 L14,11.4142136 L11.1715729,14.2426407 L9.75735931,12.8284271 L12.5857864,10 L9.75735931,7.17157288 L11.1715729,5.75735931 L14,8.58578644 L16.8284271,5.75735931 L18.2426407,7.17157288 Z" id="Shape" fill="#F37E8B"></path>
            </g>
        </g>
    </g>
</svg>