<?xml version="1.0" encoding="UTF-8"?>
<svg width="42px" height="33px" viewBox="0 0 42 33" version="1.1" xmlns="http://www.w3.org/2000/svg" xmlns:xlink="http://www.w3.org/1999/xlink">
    <!-- Generator: Sketch 52.6 (67491) - http://www.bohemiancoding.com/sketch -->
    <title>Group_BETA</title>
    <desc>Created with Sketch.</desc>
    <defs>
        <polygon id="path-1" points="0 0 16 0 16 15 0 15"></polygon>
    </defs>
    <g id="Icones-NavBar" stroke="none" stroke-width="1" fill="none" fill-rule="evenodd">
        <g id="Group_BETA">
            <rect id="Rectangle" stroke="#FAFAFA" fill="#425A70" x="0.5" y="17.5" width="41" height="15" rx="3"></rect>
            <text id="BETA" font-family="Roboto-Black, Roboto" font-size="12" font-weight="700" letter-spacing="-0.0199999996" fill="#FAFAFA">
                <tspan x="6" y="29">BET</tspan>
                <tspan x="28.0767188" y="29">A</tspan>
            </text>
            <g id="Group-3" transform="translate(13.000000, 0.000000)">
                <mask id="mask-2" fill="white">
                    <use xlink:href="#path-1"></use>
                </mask>
                <g id="Clip-2"></g>
                <path d="M14.3828973,8.57142857 L13.2664599,8.57142857 C12.7075301,7.90142857 11.9238906,7.52571429 11.0577627,7.5 C11.4915378,6.87285714 11.733314,6.11857143 11.733314,5.35714286 C11.733314,5.17285714 11.7162475,4.98857143 11.6906476,4.80428571 C12.0490454,4.93 12.4159764,4.99714286 12.799974,4.99714286 C13.9249447,4.99714286 14.7910725,4.28571429 14.9660048,4.28571429 C16.0241315,4.28571429 15.9999538,6.56285714 15.9999538,7.24 C15.9999538,8.17 15.2163143,8.57142857 14.3828973,8.57142857 M12.799974,4.28571429 C11.6252258,4.28571429 10.6666541,3.32285714 10.6666541,2.14285714 C10.6666541,0.962857143 11.6252258,0 12.799974,0 C13.9747221,0 14.9332939,0.962857143 14.9332939,2.14285714 C14.9332939,3.32285714 13.9747221,4.28571429 12.799974,4.28571429 M8.00000418,8.57142857 C6.2336153,8.57142857 4.80002432,7.13142857 4.80002432,5.35714286 C4.80002432,3.58285714 6.2336153,2.14285714 8.00000418,2.14285714 C9.76639306,2.14285714 11.199984,3.58285714 11.199984,5.35714286 C11.199984,7.13142857 9.76639306,8.57142857 8.00000418,8.57142857 M11.6408702,15 L4.35771599,15 C3.02510216,15 2.13337444,14.1885714 2.13337444,12.8314286 C2.13337444,10.94 2.57426055,8.03571429 5.01620074,8.03571429 C5.29922118,8.03571429 6.33317023,9.19857143 8.00000418,9.19857143 C9.66683813,9.19857143 10.699365,8.03571429 10.9823854,8.03571429 C13.4243256,8.03571429 13.8666339,10.94 13.8666339,12.8314286 C13.8666339,14.1885714 12.9749062,15 11.6408702,15 M3.20003439,4.28571429 C2.02528623,4.28571429 1.06671449,3.32285714 1.06671449,2.14285714 C1.06671449,0.962857143 2.02528623,0 3.20003439,0 C4.37478255,0 5.3333543,0.962857143 5.3333543,2.14285714 C5.3333543,3.32285714 4.37478255,4.28571429 3.20003439,4.28571429 M2.73354844,8.57142857 L1.61568881,8.57142857 C0.782271831,8.57142857 5.45322011e-05,8.17 5.45322011e-05,7.24 C5.45322011e-05,6.56285714 -0.0255453067,4.28571429 1.03258137,4.28571429 C1.2075136,4.28571429 2.07506369,4.99714286 3.20003439,4.99714286 C3.58260976,4.99714286 3.94954078,4.93 4.30793853,4.80428571 C4.28233869,4.98857143 4.26669434,5.17285714 4.26669434,5.35714286 C4.26669434,6.11857143 4.5084706,6.87285714 4.94082343,7.5 C4.07469555,7.52571429 3.29105604,7.90142857 2.73354844,8.57142857" id="Fill-1" fill="#FFFFFF" mask="url(#mask-2)"></path>
            </g>
        </g>
    </g>
</svg>