<?xml version="1.0" encoding="UTF-8"?>
<svg width="24px" height="20px" viewBox="0 0 24 20" version="1.1" xmlns="http://www.w3.org/2000/svg" xmlns:xlink="http://www.w3.org/1999/xlink">
    <!-- Generator: sketchtool 51.3 (57544) - http://www.bohemiancoding.com/sketch -->
    <title>D4D6B2FC-69C9-4738-A058-832ADB8E8E22</title>
    <desc>Created with sketchtool.</desc>
    <defs>
        <path d="M0,13 L8,13 L8,15 L0,15 L0,13 Z M0,8 L11,8 L11,10 L0,10 L0,8 Z M0,3 L11,3 L11,5 L0,5 L0,3 Z M19.2837294,16.5471698 L23.2067531,20.4780553 L21.4780553,22.2067531 L17.5471698,18.2837294 L17.5471698,18.1890914 C16.7776912,18.6617503 15.8871116,18.9193825 14.9596913,18.9193825 C12.2204271,18.9193825 10,16.6989554 10,13.9596913 C10,11.2204271 12.2204271,9 14.9596913,9 C17.6989554,9 19.9193825,11.2204271 19.9193825,13.9596913 C19.9193825,14.8871116 19.6617503,15.7776912 19.1890914,16.5471698 L19.2837294,16.5471698 Z M17.5837973,16.2106639 C18.1199444,15.5869825 18.4193825,14.7954123 18.4193825,13.9596913 C18.4193825,12.0488671 16.8705154,10.5 14.9596913,10.5 C13.0488671,10.5 11.5,12.0488671 11.5,13.9596913 C11.5,15.8705154 13.0488671,17.4193825 14.9596913,17.4193825 C15.7954123,17.4193825 16.5869825,17.1199444 17.2106639,16.5837973 L17.4113111,16.4113111 L17.5837973,16.2106639 Z" id="path-1"></path>
        <rect id="path-3" x="0" y="0" width="25" height="22"></rect>
    </defs>
    <g id="Symbols" stroke="none" stroke-width="1" fill="none" fill-rule="evenodd">
        <g id="BTN/classic/classic/white/icon" transform="translate(-12.000000, -10.000000)">
            <g id="BTN-Copy-11">
                <g id="Icon/advancedSearch" transform="translate(12.000000, 7.000000)">
                    <mask id="mask-2" fill="white">
                        <use xlink:href="#path-1"></use>
                    </mask>
                    <path stroke="#979797" stroke-width="1" d="M0.5,13.5 L0.5,14.5 L7.5,14.5 L7.5,13.5 L0.5,13.5 Z M0.5,8.5 L0.5,9.5 L10.5,9.5 L10.5,8.5 L0.5,8.5 Z M0.5,3.5 L0.5,4.5 L10.5,4.5 L10.5,3.5 L0.5,3.5 Z M22.5,20.4777015 L22.8528459,20.8312546 L22.8531997,20.1245019 L22.5,20.4777015 Z M21.4777015,21.5 L21.1245019,21.8531997 L21.8312546,21.8528459 L21.4777015,21.5 Z M18.0471698,18.0763293 L17.9003691,17.9298222 L17.5471698,18.2837294 L18.0471698,18.2837294 L18.0471698,18.0763293 Z M19.0763293,17.0471698 L19.2837294,17.0471698 L19.2837294,16.5471698 L18.9298222,16.9003691 L19.0763293,17.0471698 Z M17.9629556,16.536607 L17.7372542,16.7904694 L17.536607,16.9629556 C16.8182429,17.5804967 15.9098258,17.9193825 14.9596913,17.9193825 C12.7727248,17.9193825 11,16.1466577 11,13.9596913 C11,11.7727248 12.7727248,10 14.9596913,10 C17.1466577,10 18.9193825,11.7727248 18.9193825,13.9596913 C18.9193825,14.9098258 18.5804967,15.8182429 17.9629556,16.536607 Z"></path>
                    <g id="Colors/Blue" mask="url(#mask-2)">
                        <mask id="mask-4" fill="white">
                            <use xlink:href="#path-3"></use>
                        </mask>
                        <use id="Black" fill="#06BAEC" fill-rule="evenodd" xlink:href="#path-3"></use>
                    </g>
                </g>
            </g>
        </g>
    </g>
</svg>