<?xml version="1.0" encoding="UTF-8" standalone="no"?>
<!DOCTYPE svg PUBLIC "-//W3C//DTD SVG 1.1//EN" "http://www.w3.org/Graphics/SVG/1.1/DTD/svg11.dtd">
<svg width="100%" height="100%" viewBox="0 0 28 32" version="1.1" xmlns="http://www.w3.org/2000/svg" xmlns:xlink="http://www.w3.org/1999/xlink" xml:space="preserve" xmlns:serif="http://www.serif.com/" style="fill-rule:evenodd;clip-rule:evenodd;stroke-linejoin:round;stroke-miterlimit:1.41421;">
    <g transform="matrix(1,0,0,1,-592.739,-320.005)">
        <path d="M618.953,326.791C619.286,327.124 619.572,327.576 619.81,328.148C620.048,328.719 620.167,329.243 620.167,329.719L620.167,350.291C620.167,350.767 620,351.172 619.667,351.505C619.334,351.838 618.929,352.005 618.453,352.005L594.453,352.005C593.977,352.005 593.572,351.838 593.239,351.505C592.906,351.172 592.739,350.767 592.739,350.291L592.739,321.719C592.739,321.243 592.906,320.838 593.239,320.505C593.572,320.172 593.977,320.005 594.453,320.005L610.453,320.005C610.929,320.005 611.453,320.124 612.024,320.362C612.596,320.6 613.048,320.886 613.381,321.219L618.953,326.791L618.953,326.791ZM611.024,322.434L611.024,329.148L617.738,329.148C617.619,328.803 617.488,328.558 617.346,328.416L611.756,322.826C611.614,322.684 611.37,322.553 611.024,322.434L611.024,322.434ZM617.881,349.719L617.881,331.434L610.453,331.434C609.977,331.434 609.572,331.268 609.239,330.934C608.905,330.601 608.739,330.196 608.739,329.72L608.739,322.291L595.025,322.291L595.025,349.72L617.882,349.72L617.881,349.719Z" style="fill:rgb(103,103,103);fill-rule:nonzero;"/>
    </g>
</svg>
