<?xml version="1.0" encoding="UTF-8"?>
<svg width="21px" height="22px" viewBox="0 0 21 22" version="1.1" xmlns="http://www.w3.org/2000/svg" xmlns:xlink="http://www.w3.org/1999/xlink">
    <!-- Generator: Sketch 47.1 (45422) - http://www.bohemiancoding.com/sketch -->
    <title>Shape</title>
    <desc>Created with Sketch.</desc>
    <defs></defs>
    <g id="OnFLy---Content-request" stroke="none" stroke-width="1" fill="none" fill-rule="evenodd">
        <g id="00_User" transform="translate(-1172.000000, -453.000000)" fill-rule="nonzero" fill="#22C985">
            <g id="Group-5" transform="translate(50.000000, 220.000000)">
                <g id="entrée-copy-2" transform="translate(0.000000, 233.000000)">
                    <g id="Group-2">
                        <path d="M1142.1535,9.99449054 C1142.62111,9.99449054 1143,9.61780943 1143,9.15268586 C1143,8.68756229 1142.62111,8.31088118 1142.1535,8.31088118 C1141.68564,8.31088118 1141.30675,8.68756229 1141.30675,9.15268586 C1141.30675,9.61780943 1141.68589,9.99449054 1142.1535,9.99449054 Z M1141.43908,15.1253849 C1140.59431,15.1253849 1139.90987,15.8058252 1139.90987,16.6454127 C1139.90987,17.4850002 1140.59431,18.1651941 1141.43908,18.1651941 C1142.28335,18.1651941 1142.96754,17.4847538 1142.96754,16.6454127 C1142.96754,15.8058252 1142.2836,15.1253849 1141.43908,15.1253849 Z M1128.8362,17.8274375 C1128.31085,17.8274375 1127.88537,18.2504339 1127.88537,18.7724662 C1127.88537,19.2944984 1128.31085,19.7174948 1128.8362,19.7174948 C1129.36105,19.7174948 1129.78653,19.2944984 1129.78653,18.7724662 C1129.78653,18.2506803 1129.36105,17.8274375 1128.8362,17.8274375 Z M1122.7739,7.10052519 L1124.02655,6.44595245 L1125.27921,7.10052519 L1125.04007,5.713777 L1126.0536,4.73179472 L1124.653,4.52953494 L1124.0268,3.26793653 L1123.40059,4.52953494 L1122,4.73179472 L1123.01352,5.713777 L1122.7739,7.10052519 Z M1124.89734,18.1178934 L1124.27113,16.856295 L1123.64493,18.1178934 L1122.24434,18.3201532 L1123.25786,19.3021355 L1123.01873,20.6888837 L1124.27138,20.0343109 L1125.52404,20.6888837 L1125.28491,19.3021355 L1126.29843,18.3201532 L1124.89734,18.1178934 Z M1125.46308,7.17344711 C1126.44587,16.6247186 1135.07024,18.1398193 1135.07024,18.1398193 L1141.43883,3.26793653 L1125.46308,7.17344711 Z M1135.48853,14.210412 C1130.36888,12.0954301 1129.29043,7.38161947 1129.29043,7.38161947 L1131.80862,6.7354229 C1133.25506,10.2391239 1136.53278,11.8520285 1136.53278,11.8520285 L1135.48853,14.210412 Z M1135.24023,5.62065374 L1136.3836,5.32773429 C1137.03979,6.91772769 1138.52736,7.64990314 1138.52736,7.64990314 L1138.05331,8.72008152 C1135.73014,7.76002508 1135.24023,5.62065374 1135.24023,5.62065374 Z M1128.95862,5.30334487 C1129.00818,5.30334487 1129.05848,5.2932442 1129.10705,5.27255014 C1129.29538,5.19075934 1129.38112,4.97322538 1129.2991,4.78599344 C1129.17693,4.5076091 1129.17718,4.19793731 1129.2996,3.89048275 C1129.47802,3.44285058 1129.8978,3.05064893 1130.45139,2.81439178 C1131.62475,2.31453175 1131.5799,0.930986215 1131.39256,0.269269101 C1131.3373,0.0731682736 1131.13335,-0.0404026831 1130.93511,0.0140423959 C1130.73786,0.0687338328 1130.62213,0.272471753 1130.67665,0.468818938 C1130.69152,0.521539512 1131.02506,1.76589288 1130.15874,2.13542961 C1129.42399,2.44855041 1128.859,2.98905947 1128.60847,3.61850371 C1128.41419,4.10604584 1128.41741,4.62536814 1128.61764,5.08162283 C1128.6786,5.22056864 1128.81514,5.30334487 1128.95862,5.30334487 Z M1137.84094,16.7104512 C1137.64369,16.7651426 1137.52797,16.9688805 1137.58248,17.1652277 C1137.59735,17.2179483 1137.9309,18.4623017 1137.06457,18.8318384 C1136.32983,19.1449592 1135.76483,19.6854682 1135.5143,20.3149125 C1135.32002,20.8024546 1135.32324,21.3217769 1135.52347,21.7780316 C1135.58443,21.9169774 1135.72097,22 1135.86445,22 C1135.91401,22 1135.96432,21.9898993 1136.01289,21.9692053 C1136.20122,21.8874145 1136.28696,21.6698805 1136.20493,21.4826486 C1136.08277,21.2042642 1136.08301,20.8945924 1136.20543,20.5871379 C1136.38385,20.1395057 1136.80363,19.7473041 1137.35723,19.5110469 C1138.53034,19.0109405 1138.48573,17.627395 1138.29815,16.9656779 C1138.24288,16.769577 1138.03919,16.6560061 1137.84094,16.7104512 Z M1134.45047,2.28201252 L1135.63102,2.28201252 L1135.63102,3.45541483 C1135.63102,3.65964547 1135.79754,3.82495157 1136.00273,3.82495157 C1136.20791,3.82495157 1136.37443,3.65964547 1136.37443,3.45541483 L1136.37443,2.28201252 L1137.55473,2.28201252 C1137.75991,2.28201252 1137.92644,2.11670642 1137.92644,1.91247578 C1137.92644,1.70824515 1137.75991,1.54293905 1137.55473,1.54293905 L1136.37443,1.54293905 L1136.37443,0.369536735 C1136.37443,0.1653061 1136.20791,0 1136.00273,0 C1135.79754,0 1135.63102,0.1653061 1135.63102,0.369536735 L1135.63102,1.54293905 L1134.45047,1.54293905 C1134.24529,1.54293905 1134.07877,1.70824515 1134.07877,1.91247578 C1134.07877,2.11670642 1134.24529,2.28201252 1134.45047,2.28201252 Z" id="Shape"></path>
                    </g>
                </g>
            </g>
        </g>
    </g>
</svg>