<?xml version="1.0" encoding="UTF-8" standalone="no"?>
<!DOCTYPE svg PUBLIC "-//W3C//DTD SVG 1.1//EN" "http://www.w3.org/Graphics/SVG/1.1/DTD/svg11.dtd">
<svg width="100%" height="100%" viewBox="0 0 39 32" version="1.1" xmlns="http://www.w3.org/2000/svg" xmlns:xlink="http://www.w3.org/1999/xlink" xml:space="preserve" xmlns:serif="http://www.serif.com/" style="fill-rule:evenodd;clip-rule:evenodd;stroke-linejoin:round;stroke-miterlimit:1.41421;">
    <g transform="matrix(1,0,0,1,-602.637,-240.01)">
        <path d="M614.065,269.152L620.922,265.724L620.922,260.116L614.065,263.045L614.065,269.152ZM612.922,261.045L620.136,257.956L612.922,254.867L605.708,257.956L612.922,261.045ZM632.35,269.152L639.207,265.724L639.207,260.116L632.35,263.045L632.35,269.152ZM631.208,261.045L638.422,257.956L631.208,254.867L623.993,257.956L631.208,261.045ZM623.208,255.813L630.065,252.867L630.065,248.117L623.208,251.045L623.208,255.813ZM622.065,249.045L629.94,245.67L622.065,242.295L614.19,245.67L622.065,249.045ZM641.493,258.296L641.493,265.724C641.493,266.153 641.38,266.551 641.154,266.92C640.928,267.289 640.618,267.569 640.225,267.76L632.226,271.76C631.928,271.926 631.589,272.01 631.208,272.01C630.827,272.01 630.488,271.926 630.19,271.76L622.19,267.76C622.143,267.736 622.101,267.712 622.065,267.688C622.041,267.712 622,267.736 621.94,267.76L613.94,271.76C613.643,271.926 613.303,272.01 612.923,272.01C612.542,272.01 612.202,271.926 611.905,271.76L603.905,267.76C603.512,267.569 603.203,267.289 602.976,266.92C602.75,266.551 602.637,266.153 602.637,265.724L602.637,258.296C602.637,257.843 602.762,257.426 603.012,257.046C603.274,256.665 603.613,256.379 604.03,256.188L611.78,252.867L611.78,245.724C611.78,245.272 611.905,244.855 612.155,244.474C612.417,244.093 612.756,243.808 613.173,243.617L621.172,240.189C621.446,240.07 621.744,240.01 622.065,240.01C622.387,240.01 622.684,240.07 622.958,240.189L630.958,243.617C631.375,243.808 631.708,244.093 631.958,244.474C632.22,244.855 632.351,245.272 632.351,245.724L632.351,252.867L640.101,256.188C640.529,256.379 640.868,256.665 641.118,257.046C641.368,257.426 641.493,257.843 641.493,258.296L641.493,258.296Z" style="fill:white;fill-rule:nonzero;"/>
    </g>
</svg>
