<?xml version="1.0" encoding="UTF-8" standalone="no"?>
<!DOCTYPE svg PUBLIC "-//W3C//DTD SVG 1.1//EN" "http://www.w3.org/Graphics/SVG/1.1/DTD/svg11.dtd">
<svg width="100%" height="100%" viewBox="0 0 32 21" version="1.1" xmlns="http://www.w3.org/2000/svg" xmlns:xlink="http://www.w3.org/1999/xlink" xml:space="preserve" xmlns:serif="http://www.serif.com/" style="fill-rule:evenodd;clip-rule:evenodd;stroke-linejoin:round;stroke-miterlimit:1.41421;">
    <g transform="matrix(1,0,0,1,-989.222,-286.866)">
        <path d="M1018.94,297.151C1017.13,294.342 1014.86,292.241 1012.13,290.848C1012.86,292.086 1013.22,293.425 1013.22,294.866C1013.22,297.068 1012.44,298.955 1010.86,300.526C1009.3,302.086 1007.42,302.866 1005.22,302.866C1003.02,302.866 1001.13,302.086 999.56,300.526C998.001,298.955 997.221,297.068 997.221,294.866C997.221,293.425 997.584,292.086 998.31,290.848C995.584,292.241 993.316,294.342 991.507,297.151C993.09,299.592 995.072,301.538 997.453,302.991C999.846,304.431 1002.44,305.151 1005.22,305.151C1008.01,305.151 1010.59,304.431 1012.97,302.991C1015.36,301.538 1017.35,299.592 1018.94,297.151ZM1005.83,290.902C1006,290.735 1006.08,290.532 1006.08,290.294C1006.08,290.056 1006,289.854 1005.83,289.687C1005.66,289.521 1005.46,289.437 1005.22,289.437C1003.73,289.437 1002.45,289.973 1001.38,291.044C1000.32,292.104 999.792,293.378 999.792,294.866C999.792,295.104 999.876,295.306 1000.04,295.473C1000.21,295.64 1000.41,295.723 1000.65,295.723C1000.89,295.723 1001.09,295.64 1001.26,295.473C1001.42,295.306 1001.51,295.104 1001.51,294.866C1001.51,293.842 1001.87,292.967 1002.6,292.241C1003.32,291.515 1004.2,291.152 1005.22,291.152C1005.46,291.152 1005.66,291.068 1005.83,290.902L1005.83,290.902ZM1020.86,295.919C1021.1,296.336 1021.22,296.747 1021.22,297.151C1021.22,297.556 1021.1,297.967 1020.86,298.384C1019.2,301.122 1016.95,303.318 1014.13,304.973C1011.32,306.616 1008.35,307.437 1005.22,307.437C1002.09,307.437 999.114,306.61 996.293,304.955C993.483,303.3 991.245,301.11 989.579,298.384C989.341,297.967 989.222,297.556 989.222,297.151C989.222,296.747 989.341,296.336 989.579,295.919C991.245,293.193 993.483,291.003 996.293,289.348C999.114,287.693 1002.09,286.866 1005.22,286.866C1008.35,286.866 1011.32,287.693 1014.13,289.348C1016.95,291.003 1019.2,293.193 1020.86,295.919Z" style="fill:rgb(103,103,103);fill-rule:nonzero;"/>
    </g>
</svg>
