<?xml version="1.0" encoding="UTF-8" standalone="no"?>
<!DOCTYPE svg PUBLIC "-//W3C//DTD SVG 1.1//EN" "http://www.w3.org/Graphics/SVG/1.1/DTD/svg11.dtd">
<svg width="100%" height="100%" viewBox="0 0 28 32" version="1.1" xmlns="http://www.w3.org/2000/svg" xmlns:xlink="http://www.w3.org/1999/xlink" xml:space="preserve" xmlns:serif="http://www.serif.com/" style="fill-rule:evenodd;clip-rule:evenodd;stroke-linejoin:round;stroke-miterlimit:1.41421;">
    <g transform="matrix(1,0,0,1,-628.786,-320.005)">
        <path d="M655,326.791C655.333,327.124 655.619,327.576 655.857,328.148C656.095,328.719 656.214,329.243 656.214,329.719L656.214,350.291C656.214,350.767 656.047,351.172 655.714,351.505C655.381,351.838 654.976,352.005 654.5,352.005L630.5,352.005C630.024,352.005 629.619,351.838 629.286,351.505C628.953,351.172 628.786,350.767 628.786,350.291L628.786,321.719C628.786,321.243 628.953,320.838 629.286,320.505C629.619,320.172 630.024,320.005 630.5,320.005L646.5,320.005C646.976,320.005 647.5,320.124 648.071,320.362C648.643,320.6 649.095,320.886 649.429,321.219L655,326.791L655,326.791ZM647.071,322.434L647.071,329.148L653.786,329.148C653.667,328.803 653.536,328.558 653.393,328.416L647.804,322.826C647.661,322.684 647.417,322.553 647.071,322.434L647.071,322.434ZM653.928,349.719L653.928,331.434L646.5,331.434C646.024,331.434 645.619,331.268 645.286,330.934C644.952,330.601 644.786,330.196 644.786,329.72L644.786,322.291L631.072,322.291L631.072,349.72L653.929,349.72L653.928,349.719ZM644.75,339.13C645.143,339.44 645.643,339.773 646.25,340.13C646.953,340.047 647.649,340.005 648.339,340.005C650.089,340.005 651.143,340.297 651.5,340.88C651.691,341.142 651.703,341.451 651.536,341.809C651.536,341.82 651.53,341.832 651.518,341.844C651.506,341.856 651.494,341.868 651.482,341.88L651.482,341.898C651.411,342.35 650.988,342.576 650.214,342.576C649.643,342.576 648.959,342.457 648.161,342.219C647.363,341.981 646.59,341.666 645.84,341.273C643.209,341.558 640.875,342.053 638.84,342.755C637.018,345.874 635.578,347.433 634.518,347.433C634.34,347.433 634.173,347.392 634.018,347.308L633.59,347.094C633.578,347.082 633.542,347.052 633.483,347.005C633.364,346.886 633.328,346.672 633.375,346.362C633.483,345.886 633.816,345.344 634.375,344.737C634.935,344.118 635.721,343.541 636.733,343.005C636.899,342.898 637.036,342.933 637.143,343.112C637.167,343.136 637.179,343.16 637.179,343.183C637.798,342.172 638.435,340.999 639.09,339.666C639.899,338.047 640.518,336.487 640.947,334.987C640.661,334.011 640.477,333.064 640.393,332.148C640.322,331.219 640.363,330.457 640.518,329.862C640.649,329.386 640.899,329.148 641.268,329.148L641.661,329.148C641.935,329.148 642.143,329.237 642.286,329.416C642.5,329.666 642.554,330.07 642.447,330.63C642.423,330.701 642.399,330.749 642.375,330.773C642.387,330.809 642.393,330.856 642.393,330.916L642.393,331.451C642.369,332.916 642.286,334.059 642.143,334.88C642.798,336.832 643.667,338.249 644.75,339.13L644.75,339.13ZM634.465,346.469C635.084,346.183 635.899,345.243 636.911,343.648C636.304,344.124 635.78,344.624 635.34,345.148C634.911,345.672 634.62,346.112 634.465,346.469ZM641.572,330.041C641.393,330.541 641.382,331.326 641.536,332.398C641.548,332.315 641.59,332.053 641.661,331.612C641.661,331.576 641.703,331.321 641.786,330.844C641.798,330.797 641.822,330.749 641.858,330.702C641.846,330.69 641.84,330.678 641.84,330.666C641.828,330.642 641.822,330.624 641.822,330.612C641.81,330.35 641.733,330.136 641.59,329.969C641.59,329.981 641.584,329.993 641.572,330.005L641.572,330.041L641.572,330.041ZM639.358,341.844C640.965,341.202 642.655,340.72 644.429,340.398C644.405,340.386 644.328,340.333 644.197,340.237C644.066,340.13 643.971,340.047 643.911,339.987C643.007,339.19 642.251,338.142 641.643,336.845C641.322,337.868 640.828,339.041 640.161,340.362C639.804,341.029 639.536,341.523 639.358,341.845L639.358,341.844ZM650.893,341.559C650.608,341.273 649.774,341.13 648.393,341.13C649.298,341.464 650.036,341.63 650.608,341.63C650.774,341.63 650.882,341.624 650.929,341.612C650.929,341.6 650.917,341.583 650.894,341.559L650.893,341.559Z" style="fill:rgb(103,103,103);fill-rule:nonzero;"/>
    </g>
</svg>
