<?xml version="1.0" encoding="UTF-8" standalone="no"?>
<!DOCTYPE svg PUBLIC "-//W3C//DTD SVG 1.1//EN" "http://www.w3.org/Graphics/SVG/1.1/DTD/svg11.dtd">
<svg width="100%" height="100%" viewBox="0 0 32 26" version="1.1" xmlns="http://www.w3.org/2000/svg" xmlns:xlink="http://www.w3.org/1999/xlink" xml:space="preserve" xmlns:serif="http://www.serif.com/" style="fill-rule:evenodd;clip-rule:evenodd;stroke-linejoin:round;stroke-miterlimit:1.41421;" fill="currentColor">
    <g transform="matrix(1,0,0,1,-989.158,-602.286)">
        <path d="M1005.01,621.143L1007.09,619.072L1004.37,616.358L1002.3,618.429L1002.3,619.429L1004.01,619.429L1004.01,621.143L1005.01,621.143ZM1012.85,608.876C1013.06,608.673 1013.06,608.477 1012.87,608.286C1012.68,608.096 1012.49,608.102 1012.28,608.304L1006.03,614.554C1005.83,614.757 1005.83,614.953 1006.01,615.144C1006.21,615.334 1006.4,615.328 1006.61,615.126L1012.85,608.876L1012.85,608.876ZM1014.3,618.893L1014.3,622.286C1014.3,623.703 1013.8,624.917 1012.78,625.929C1011.78,626.929 1010.58,627.429 1009.16,627.429L994.301,627.429C992.884,627.429 991.67,626.929 990.658,625.929C989.658,624.917 989.158,623.703 989.158,622.286L989.158,607.429C989.158,606.012 989.658,604.804 990.658,603.804C991.67,602.792 992.884,602.286 994.301,602.286L1009.16,602.286C1009.91,602.286 1010.61,602.435 1011.25,602.732C1011.43,602.816 1011.53,602.953 1011.57,603.143C1011.61,603.345 1011.55,603.518 1011.41,603.661L1010.53,604.536C1010.37,604.703 1010.18,604.75 1009.96,604.679C1009.69,604.607 1009.42,604.572 1009.16,604.572L994.301,604.572C993.515,604.572 992.843,604.851 992.283,605.411C991.724,605.97 991.444,606.643 991.444,607.429L991.444,622.286C991.444,623.072 991.724,623.744 992.283,624.304C992.843,624.863 993.515,625.143 994.301,625.143L1009.16,625.143C1009.94,625.143 1010.62,624.863 1011.18,624.304C1011.74,623.744 1012.01,623.072 1012.01,622.286L1012.01,620.036C1012.01,619.881 1012.07,619.75 1012.18,619.643L1013.32,618.5C1013.5,618.322 1013.71,618.28 1013.94,618.375C1014.18,618.471 1014.3,618.643 1014.3,618.893L1014.3,618.893ZM1012.59,605.715L1017.73,610.858L1005.73,622.857L1000.59,622.857L1000.59,617.715L1012.59,605.715L1012.59,605.715ZM1020.51,608.072L1018.87,609.715L1013.73,604.572L1015.37,602.929C1015.71,602.596 1016.11,602.429 1016.59,602.429C1017.06,602.429 1017.47,602.596 1017.8,602.929L1020.51,605.644C1020.85,605.977 1021.01,606.382 1021.01,606.858C1021.01,607.334 1020.85,607.739 1020.51,608.072L1020.51,608.072Z"/>
    </g>
</svg>
