<?xml version="1.0" encoding="UTF-8"?>
<svg width="16px" height="16px" viewBox="0 0 16 16" version="1.1" xmlns="http://www.w3.org/2000/svg" xmlns:xlink="http://www.w3.org/1999/xlink">
    <!-- Generator: Sketch 47.1 (45422) - http://www.bohemiancoding.com/sketch -->
    <title>ic_access_time_black_24px</title>
    <desc>Created with Sketch.</desc>
    <defs></defs>
    <g id="OnFLy---Content-request" stroke="none" stroke-width="1" fill="none" fill-rule="evenodd">
        <g id="00_User" transform="translate(-1174.000000, -510.000000)" fill-rule="nonzero" fill="#38BACA">
            <g id="Group-5" transform="translate(50.000000, 220.000000)">
                <g id="entrée-copy-2" transform="translate(0.000000, 233.000000)">
                    <g id="Group-2-Copy" transform="translate(0.000000, 53.000000)">
                        <g id="ic_access_time_black_24px" transform="translate(1124.000000, 4.000000)">
                            <path d="M7.992,0 C3.576,0 0,3.584 0,8 C0,12.416 3.576,16 7.992,16 C12.416,16 16,12.416 16,8 C16,3.584 12.416,0 7.992,0 Z M8,14.4 C4.464,14.4 1.6,11.536 1.6,8 C1.6,4.464 4.464,1.6 8,1.6 C11.536,1.6 14.4,4.464 14.4,8 C14.4,11.536 11.536,14.4 8,14.4 Z" id="Shape"></path>
                            <polygon id="Shape" points="8.4 4 7.2 4 7.2 8.8 11.4 11.32 12 10.336 8.4 8.2"></polygon>
                        </g>
                    </g>
                </g>
            </g>
        </g>
    </g>
</svg>