<?xml version="1.0" encoding="UTF-8" standalone="no"?>
<!DOCTYPE svg PUBLIC "-//W3C//DTD SVG 1.1//EN" "http://www.w3.org/Graphics/SVG/1.1/DTD/svg11.dtd">
<svg width="100%" height="100%" viewBox="0 0 30 26" version="1.1" xmlns="http://www.w3.org/2000/svg" xmlns:xlink="http://www.w3.org/1999/xlink" xml:space="preserve" xmlns:serif="http://www.serif.com/" style="fill-rule:evenodd;clip-rule:evenodd;stroke-linejoin:round;stroke-miterlimit:1.41421;">
    <g transform="matrix(1,0,0,1,-307.046,-362.29)">
        <path d="M336.76,370.862L336.76,383.433C336.76,384.528 336.367,385.468 335.581,386.254C334.796,387.04 333.855,387.432 332.76,387.432L311.046,387.432C309.951,387.432 309.01,387.04 308.225,386.254C307.439,385.468 307.046,384.528 307.046,383.433L307.046,366.29C307.046,365.195 307.439,364.254 308.225,363.468C309.01,362.683 309.951,362.29 311.046,362.29L316.76,362.29C317.855,362.29 318.796,362.683 319.582,363.468C320.367,364.254 320.76,365.195 320.76,366.29L320.76,366.861L332.76,366.861C333.855,366.861 334.795,367.254 335.581,368.04C336.367,368.825 336.76,369.766 336.76,370.861L336.76,370.862Z" style="fill:rgb(103,103,103);fill-rule:nonzero;"/>
    </g>
</svg>
