<?xml version="1.0" encoding="UTF-8"?>
<svg width="20px" height="17px" viewBox="0 0 20 17" version="1.1" xmlns="http://www.w3.org/2000/svg" xmlns:xlink="http://www.w3.org/1999/xlink">
    <!-- Generator: Sketch 47.1 (45422) - http://www.bohemiancoding.com/sketch -->
    <title>Group</title>
    <desc>Created with Sketch.</desc>
    <defs></defs>
    <g id="OnFLy---Content-request" stroke="none" stroke-width="1" fill="none" fill-rule="evenodd">
        <g id="00_User" transform="translate(-1172.000000, -354.000000)" fill-rule="nonzero" fill="#4E6DE2">
            <g id="Group-5" transform="translate(50.000000, 220.000000)">
                <g id="entrée" transform="translate(0.000000, 129.000000)">
                    <g id="noun_215093_cc" transform="translate(1122.000000, 5.000000)">
                        <g id="Group">
                            <path d="M9.35714286,16.9310811 L19.8333333,16.9310811 L16.1428571,10.7283784 C15,11.2567568 14.3333333,12.1986486 13.7142857,13.0027027 L9.5,10.6364865 L7.5952381,3.74459459 C7.5,3.33108108 7.0952381,2.91756757 6.66666667,2.73378378 L6.66666667,2.73378378 C6.52380952,2.66486486 6.35714286,2.61891892 6.21428571,2.61891892 L2.95238095,2.61891892 C2.45238095,2.61891892 2.11904762,2.87162162 1.85714286,3.28513514 L0.357142857,5.65135135 C0.119047619,6.11081081 0.285714286,6.70810811 0.619047619,6.84594595 L2.61904762,7.97162162 L2.54761905,8.06351351 C2.33333333,8.47702703 2.52380952,9.00540541 2.85714286,9.21216216 L7.0952381,11.4864865 L7.0952381,15.8972973 C7.0952381,16.3567568 7.47619048,16.7472973 7.97619048,16.7472973 L8,16.7472973 C8.26190476,16.7472973 8.47619048,16.6554054 8.64285714,16.4716216 C8.78571429,16.3337838 8.88095238,16.127027 8.88095238,15.9202703 L8.88095238,11.4175676 L13.0714286,13.7378378 C12.1190476,14.5878378 11.0714286,14.1743243 10.3095238,14.9783784 C9.85714286,15.5067568 9.52380952,16.1959459 9.35714286,16.9310811 Z M3.14285714,7.09864865 L1.78571429,6.34054054 L3.16666667,4.11216216 L4.92857143,4.11216216 L3.14285714,7.09864865 Z M5.61904762,8.5 L6.78571429,6.5472973 L7.66666667,9.62567568 L5.61904762,8.5 Z" id="Shape"></path>
                            <path d="M8.64285714,3.44594595 C9.57142857,3.44594595 10.1190476,2.66486486 10.1190476,1.72297297 C10.1190476,0.872972973 9.42857143,0.275675676 8.61904762,0.137837838 L8.61904762,0.137837838 C8.52380952,0.114864865 8.4047619,0.114864865 8.30952381,0.114864865 C7.38095238,0.114864865 7.11904762,0.918918919 7.11904762,1.90675676 C7.14285714,2.87162162 7.71428571,3.44594595 8.64285714,3.44594595 Z" id="Shape"></path>
                            <path d="M4.47619048,10.4756757 L2.57142857,9.44189189 L2.80952381,10.7283784 C2.83333333,11.0040541 3.02380952,11.5554054 2.80952381,11.8310811 L0.30952381,15.277027 C0.0476190476,15.6445946 0.19047619,16.2189189 0.523809524,16.4716216 C1,16.8391892 1.64285714,16.4486486 1.76190476,16.2418919 L4.45238095,12.5202703 C4.52380952,12.3824324 4.73809524,11.8081081 4.66666667,11.3027027 C4.66666667,11.3256757 4.57142857,10.5216216 4.47619048,10.4756757 Z" id="Shape"></path>
                        </g>
                    </g>
                </g>
            </g>
        </g>
    </g>
</svg>