<?xml version="1.0" encoding="UTF-8"?>
<svg width="16px" height="16px" viewBox="0 0 16 16" version="1.1" xmlns="http://www.w3.org/2000/svg" xmlns:xlink="http://www.w3.org/1999/xlink">
    <!-- Generator: Sketch 47.1 (45422) - http://www.bohemiancoding.com/sketch -->
    <title>Shape</title>
    <desc>Created with Sketch.</desc>
    <defs></defs>
    <g id="OnFLy---Content-request" stroke="none" stroke-width="1" fill="none" fill-rule="evenodd">
        <g id="00_User" transform="translate(-1174.000000, -563.000000)" fill-rule="nonzero" fill="#F6C533">
            <g id="Group-5" transform="translate(50.000000, 220.000000)">
                <g id="entrée-copy-2" transform="translate(0.000000, 233.000000)">
                    <g id="Group-2-Copy-2" transform="translate(0.000000, 106.000000)">
                        <g id="noun_1242228_cc" transform="translate(1124.000000, 4.000000)">
                            <path d="M8,0 C12.418278,0 16,3.581722 16,8 C16,12.418278 12.418278,16 8,16 C3.581722,16 0,12.418278 0,8 C0,3.581722 3.581722,0 8,0 Z M13.162174,3.78063533 L13.162174,3.78063533 L3.78063533,13.162174 C6.39930933,15.307818 10.2696487,15.158442 12.7140453,12.7140453 C15.158442,10.2696487 15.307818,6.39930933 13.162174,3.78063533 Z M2.837826,12.2193647 L2.837826,12.2193647 L12.2193647,2.837826 C9.60069067,0.692182 5.73035133,0.841558 3.28595467,3.28595467 C0.841558,5.73035133 0.692182,9.60069067 2.837826,12.2193647 Z" id="Shape"></path>
                        </g>
                    </g>
                </g>
            </g>
        </g>
    </g>
</svg>