<?xml version="1.0" encoding="UTF-8" standalone="no"?>
<!DOCTYPE svg PUBLIC "-//W3C//DTD SVG 1.1//EN" "http://www.w3.org/Graphics/SVG/1.1/DTD/svg11.dtd">
<svg width="100%" height="100%" viewBox="0 0 28 32" version="1.1" xmlns="http://www.w3.org/2000/svg" xmlns:xlink="http://www.w3.org/1999/xlink" xml:space="preserve" xmlns:serif="http://www.serif.com/" style="fill-rule:evenodd;clip-rule:evenodd;stroke-linejoin:round;stroke-miterlimit:1.41421;">
    <g transform="matrix(1,0,0,1,-520.653,-320.005)">
        <path d="M546.867,326.791C547.2,327.124 547.486,327.576 547.724,328.148C547.962,328.719 548.081,329.243 548.081,329.719L548.081,350.291C548.081,350.767 547.914,351.172 547.581,351.505C547.247,351.838 546.843,352.005 546.367,352.005L522.367,352.005C521.891,352.005 521.486,351.838 521.153,351.505C520.819,351.172 520.653,350.767 520.653,350.291L520.653,321.719C520.653,321.243 520.819,320.838 521.153,320.505C521.486,320.172 521.891,320.005 522.367,320.005L538.367,320.005C538.843,320.005 539.367,320.124 539.938,320.362C540.509,320.6 540.962,320.886 541.295,321.219L546.867,326.791L546.867,326.791ZM538.938,322.434L538.938,329.148L545.652,329.148C545.533,328.803 545.402,328.558 545.259,328.416L539.67,322.826C539.527,322.684 539.283,322.553 538.938,322.434L538.938,322.434ZM545.795,349.719L545.795,331.434L538.367,331.434C537.891,331.434 537.486,331.268 537.152,330.934C536.819,330.601 536.652,330.196 536.652,329.72L536.652,322.291L522.938,322.291L522.938,349.72L545.795,349.72L545.795,349.719ZM528.313,345.541L528.313,347.434L533.331,347.434L533.331,345.541L531.992,345.541L533.831,342.666C533.89,342.582 533.95,342.487 534.01,342.38C534.069,342.261 534.111,342.178 534.135,342.13C534.17,342.082 534.194,342.059 534.206,342.059L534.242,342.059C534.254,342.106 534.283,342.166 534.331,342.237C534.355,342.285 534.379,342.332 534.402,342.38C534.438,342.416 534.474,342.463 534.51,342.523C534.557,342.571 534.599,342.618 534.635,342.666L536.545,345.541L535.188,345.541L535.188,347.434L540.385,347.434L540.385,345.541L539.17,345.541L535.742,340.666L539.224,335.63L540.42,335.63L540.42,333.72L535.438,333.72L535.438,335.63L536.759,335.63L534.92,338.47C534.873,338.553 534.813,338.654 534.742,338.773C534.67,338.88 534.617,338.958 534.581,339.005L534.545,339.059L534.51,339.059C534.498,339.011 534.468,338.952 534.42,338.88C534.349,338.749 534.248,338.612 534.117,338.47L532.224,335.63L533.581,335.63L533.581,333.72L528.403,333.72L528.403,335.63L529.617,335.63L532.992,340.487L529.528,345.541L528.313,345.541L528.313,345.541Z" style="fill:rgb(103,103,103);fill-rule:nonzero;"/>
    </g>
</svg>
