<?xml version="1.0" encoding="utf-8"?>
<!-- Generator: Adobe Illustrator 18.1.0, SVG Export Plug-In . SVG Version: 6.00 Build 0)  -->
<svg version="1.1" id="Calque_1" xmlns="http://www.w3.org/2000/svg" xmlns:xlink="http://www.w3.org/1999/xlink" x="0px" y="0px"
	 viewBox="0 0 512 512" enable-background="new 0 0 512 512" xml:space="preserve">
<path fill="#73A688" d="M491.4,295.1l-13.9-25.6c-5.9-10.8-6-23.8-0.2-34.6l13.6-25.8c5.5-10.5,6.5-22.6,2.8-33.9
	c-3.8-11.3-11.7-20.3-22.5-25.4l-26.3-12.5c-11.1-5.3-18.8-15.7-20.5-27.9L420,80.6c-3.1-21.3-21.6-37.3-43.1-37.1
	c-2.6,0-5.1,0.3-7.7,0.7l-28.7,5.3c-2.1,0.4-4.3,0.6-6.4,0.6c-9.9,0.1-19.6-4-26.5-11.1l-20.4-20.9c-8.3-8.5-19.4-13.1-31.3-13.1
	C244,5.2,233,10,224.8,18.7l-20.1,21.2c-6.8,7.2-16.4,11.4-26.3,11.4c-2.2,0-4.3-0.2-6.4-0.5l-28.8-4.9c-2.5-0.4-5.1-0.6-7.7-0.6
	C114,45.3,95.7,61.5,92.9,82.9l-3.8,28.9C87.5,124,80,134.5,69,139.9l-26.1,12.9c-10.7,5.3-18.5,14.4-22.1,25.8
	c-3.6,11.3-2.4,23.4,3.2,33.8l13.9,25.6c5.9,10.8,6,23.7,0.2,34.6l-13.6,25.8c-5.5,10.5-6.5,22.6-2.8,33.9
	c3.8,11.3,11.7,20.3,22.5,25.4l26.3,12.5c11.1,5.3,18.8,15.7,20.5,27.9l4.2,28.9c3.1,21.3,21.6,37.3,43.1,37.1
	c2.6,0,5.1-0.3,7.7-0.7l28.7-5.3c2.1-0.4,4.3-0.6,6.4-0.6c9.9-0.1,19.6,4,26.5,11.1l20.4,20.9c8.3,8.5,19.4,13.1,31.3,13.1
	c11.9-0.1,22.9-4.9,31.1-13.5l20.1-21.2c6.8-7.2,16.4-11.4,26.3-11.4c2.2,0,4.3,0.2,6.4,0.5l28.8,4.9c2.5,0.4,5.1,0.6,7.7,0.6
	c21.5-0.1,39.8-16.4,42.6-37.7l3.8-28.9c1.6-12.2,9.1-22.7,20.2-28.1l26.1-12.9c10.7-5.3,18.5-14.4,22.1-25.8
	C498.2,317.5,497.1,305.5,491.4,295.1z"/>
<circle fill="#FFFFFF" cx="256.1" cy="247.8" r="148"/>
<path fill="#73A688" d="M330.3,208.9c0-3.7-1.3-7.4-4-10.4c-5.7-6.4-15.5-6.9-21.9-1.2l-71.5,67.7l-32.5-29.2
	c-6.4-5.7-16.2-5.2-21.9,1.2c-5.7,6.4-5.2,16.2,1.2,21.9l43.1,38.7c0,0,0,0,0.1,0l0,0c0.3,0.3,0.7,0.6,1.1,0.9
	c0.1,0,0.1,0.1,0.2,0.1c0.1,0.1,0.2,0.1,0.3,0.2c0,0,0,0,0,0c0.2,0.2,0.5,0.3,0.7,0.5c0.1,0.1,0.2,0.1,0.3,0.2
	c0.1,0,0.2,0.1,0.2,0.1c0.2,0.1,0.5,0.3,0.8,0.4c0.1,0.1,0.2,0.1,0.3,0.2c0.1,0,0.1,0,0.2,0.1c0,0,0.1,0,0.1,0.1c0,0,0,0,0.1,0
	c0,0,0,0,0,0c0.2,0.1,0.3,0.1,0.5,0.2c0.2,0.1,0.3,0.1,0.5,0.2c0.1,0,0.2,0.1,0.2,0.1c0.2,0.1,0.4,0.1,0.7,0.2
	c0.2,0.1,0.4,0.1,0.5,0.2c0.1,0,0.2,0,0.2,0.1c0.2,0,0.4,0.1,0.7,0.1c0.2,0,0.4,0.1,0.6,0.1c0.1,0,0.2,0,0.2,0c0.2,0,0.4,0,0.7,0.1
	c0.2,0,0.4,0,0.6,0.1c0.1,0,0.1,0,0.2,0c0,0,0.1,0,0.1,0c0,0,0,0,0,0c0,0,0,0,0.1,0c0,0,0,0,0.1,0c0,0,0,0,0,0c0.1,0,0.3,0,0.4,0
	c0.2,0,0.4,0,0.6,0c0.1,0,0.3,0,0.4,0c0.2,0,0.4,0,0.6-0.1c0.2,0,0.3,0,0.5-0.1c0.2,0,0.3-0.1,0.5-0.1c0,0,0,0,0,0
	c0.2,0,0.4-0.1,0.6-0.1c0.1,0,0.2,0,0.4-0.1c0.2,0,0.3-0.1,0.5-0.1c0.1,0,0.2-0.1,0.3-0.1c0.2,0,0.3-0.1,0.5-0.1
	c0.1,0,0.1,0,0.2-0.1c0.2-0.1,0.3-0.1,0.5-0.2c0.3-0.1,0.6-0.2,0.8-0.3c0,0,0,0,0,0c0,0,0,0,0,0c0,0,0,0,0.1,0c0,0,0,0,0,0
	c0,0,0,0,0,0c0.4-0.2,0.7-0.4,1.1-0.6c0.1,0,0.1-0.1,0.2-0.1c0.1,0,0.2-0.1,0.2-0.2c0.3-0.2,0.5-0.3,0.8-0.5
	c0.1-0.1,0.2-0.1,0.2-0.2c0,0,0.1-0.1,0.1-0.1c0.4-0.3,0.7-0.6,1.1-0.9l0.1-0.1c0,0,0.1-0.1,0.1-0.1l81.4-77.1
	C328.5,217.4,330.3,213.2,330.3,208.9z"/>
</svg>
