<?xml version="1.0" encoding="UTF-8" standalone="no"?>
<!DOCTYPE svg PUBLIC "-//W3C//DTD SVG 1.1//EN" "http://www.w3.org/Graphics/SVG/1.1/DTD/svg11.dtd">
<svg width="100%" height="100%" viewBox="0 0 28 32" version="1.1" xmlns="http://www.w3.org/2000/svg" xmlns:xlink="http://www.w3.org/1999/xlink" xml:space="preserve" xmlns:serif="http://www.serif.com/" style="fill-rule:evenodd;clip-rule:evenodd;stroke-linejoin:round;stroke-miterlimit:1.41421;">
    <g transform="matrix(1,0,0,1,-772.975,-320.005)">
        <path d="M799.188,326.791C799.522,327.124 799.807,327.576 800.045,328.148C800.284,328.719 800.403,329.243 800.403,329.719L800.403,350.291C800.403,350.767 800.236,351.172 799.903,351.505C799.569,351.838 799.165,352.005 798.688,352.005L774.689,352.005C774.213,352.005 773.808,351.838 773.475,351.505C773.141,351.172 772.975,350.767 772.975,350.291L772.975,321.719C772.975,321.243 773.141,320.838 773.475,320.505C773.808,320.172 774.213,320.005 774.689,320.005L790.689,320.005C791.165,320.005 791.688,320.124 792.26,320.362C792.831,320.6 793.284,320.886 793.617,321.219L799.188,326.791L799.188,326.791ZM791.26,322.434L791.26,329.148L797.974,329.148C797.855,328.803 797.724,328.558 797.581,328.416L791.992,322.826C791.849,322.684 791.605,322.553 791.26,322.434L791.26,322.434ZM798.117,349.719L798.117,331.434L790.688,331.434C790.212,331.434 789.808,331.268 789.474,330.934C789.141,330.601 788.974,330.196 788.974,329.72L788.974,322.291L775.26,322.291L775.26,349.72L798.117,349.72L798.117,349.719ZM786.688,333.72C787.307,333.72 787.843,333.946 788.296,334.398C788.748,334.851 788.974,335.386 788.974,336.005L788.974,342.862C788.974,343.482 788.748,344.017 788.296,344.47C787.843,344.922 787.307,345.148 786.688,345.148L779.831,345.148C779.212,345.148 778.677,344.922 778.224,344.47C777.772,344.017 777.546,343.482 777.546,342.862L777.546,336.005C777.546,335.386 777.772,334.851 778.224,334.398C778.677,333.946 779.212,333.72 779.831,333.72L786.688,333.72ZM795.474,333.755C795.712,333.851 795.831,334.029 795.831,334.291L795.831,344.576C795.831,344.838 795.712,345.017 795.474,345.112C795.379,345.136 795.307,345.148 795.26,345.148C795.093,345.148 794.956,345.094 794.849,344.987L790.117,340.237L790.117,338.63L794.849,333.88C794.956,333.773 795.093,333.719 795.26,333.719C795.307,333.719 795.379,333.731 795.474,333.755L795.474,333.755Z" style="fill:rgb(103,103,103);fill-rule:nonzero;"/>
    </g>
</svg>
