<?xml version="1.0" encoding="UTF-8" standalone="no"?>
<!DOCTYPE svg PUBLIC "-//W3C//DTD SVG 1.1//EN" "http://www.w3.org/Graphics/SVG/1.1/DTD/svg11.dtd">
<svg width="100%" height="100%" viewBox="0 0 28 32" version="1.1" xmlns="http://www.w3.org/2000/svg" xmlns:xlink="http://www.w3.org/1999/xlink" xml:space="preserve" xmlns:serif="http://www.serif.com/" style="fill-rule:evenodd;clip-rule:evenodd;stroke-linejoin:round;stroke-miterlimit:1.41421;">
    <g transform="matrix(1,0,0,1,-412.513,-320.006)">
        <path d="M423.942,326.863L423.942,324.577L421.656,324.577L421.656,326.863L423.942,326.863ZM426.227,329.148L426.227,326.863L423.942,326.863L423.942,329.148L426.227,329.148ZM423.942,331.434L423.942,329.148L421.656,329.148L421.656,331.434L423.942,331.434ZM426.227,333.72L426.227,331.434L423.942,331.434L423.942,333.72L426.227,333.72ZM438.727,326.791C439.06,327.125 439.346,327.577 439.584,328.148C439.822,328.72 439.941,329.244 439.941,329.72L439.941,350.291C439.941,350.768 439.775,351.172 439.441,351.506C439.108,351.839 438.703,352.006 438.227,352.006L414.228,352.006C413.751,352.006 413.347,351.839 413.013,351.506C412.68,351.172 412.513,350.768 412.513,350.291L412.513,321.72C412.513,321.244 412.68,320.839 413.013,320.506C413.347,320.172 413.751,320.006 414.228,320.006L430.227,320.006C430.703,320.006 431.227,320.125 431.799,320.363C432.37,320.601 432.822,320.887 433.156,321.22L438.727,326.791L438.727,326.791ZM430.799,322.434L430.799,329.148L437.513,329.148C437.394,328.803 437.263,328.559 437.12,328.416L431.531,322.827C431.388,322.684 431.144,322.553 430.799,322.434L430.799,322.434ZM437.656,349.72L437.656,331.435L430.227,331.435C429.751,331.435 429.346,331.268 429.013,330.935C428.679,330.601 428.513,330.197 428.513,329.721L428.513,322.292L426.227,322.292L426.227,324.578L423.941,324.578L423.941,322.292L414.798,322.292L414.798,349.72L437.655,349.72L437.656,349.72ZM426.459,336.845L428.37,343.077C428.465,343.399 428.513,343.708 428.513,344.006C428.513,344.994 428.078,345.815 427.209,346.47C426.352,347.113 425.263,347.434 423.941,347.434C422.62,347.434 421.525,347.113 420.655,346.47C419.798,345.815 419.37,344.994 419.37,344.006C419.37,343.708 419.417,343.399 419.513,343.077C419.763,342.327 420.477,339.97 421.655,336.006L421.655,333.72L423.941,333.72L423.941,336.006L425.352,336.006C425.614,336.006 425.846,336.083 426.048,336.238C426.251,336.393 426.388,336.595 426.459,336.845L426.459,336.845ZM422.316,344.809C422.769,345.035 423.31,345.149 423.941,345.149C424.572,345.149 425.108,345.035 425.548,344.809C426.001,344.583 426.227,344.315 426.227,344.006C426.227,343.696 426.001,343.428 425.548,343.202C425.108,342.976 424.572,342.863 423.941,342.863C423.31,342.863 422.769,342.976 422.316,343.202C421.876,343.428 421.656,343.696 421.656,344.006C421.656,344.315 421.876,344.583 422.316,344.809Z" style="fill:rgb(103,103,103);fill-rule:nonzero;"/>
    </g>
</svg>
