<?xml version="1.0" encoding="UTF-8" standalone="no"?>
<!DOCTYPE svg PUBLIC "-//W3C//DTD SVG 1.1//EN" "http://www.w3.org/Graphics/SVG/1.1/DTD/svg11.dtd">
<svg width="100%" height="100%" viewBox="0 0 28 32" version="1.1" xmlns="http://www.w3.org/2000/svg" xmlns:xlink="http://www.w3.org/1999/xlink" xml:space="preserve" xmlns:serif="http://www.serif.com/" style="fill-rule:evenodd;clip-rule:evenodd;stroke-linejoin:round;stroke-miterlimit:1.41421;">
    <g transform="matrix(1,0,0,1,-556.7,-320.005)">
        <path d="M582.914,326.791C583.247,327.124 583.533,327.576 583.771,328.148C584.009,328.719 584.128,329.243 584.128,329.719L584.128,350.291C584.128,350.767 583.961,351.172 583.628,351.505C583.295,351.838 582.89,352.005 582.414,352.005L558.414,352.005C557.938,352.005 557.533,351.838 557.2,351.505C556.867,351.172 556.7,350.767 556.7,350.291L556.7,321.719C556.7,321.243 556.867,320.838 557.2,320.505C557.533,320.172 557.938,320.005 558.414,320.005L574.414,320.005C574.89,320.005 575.414,320.124 575.985,320.362C576.557,320.6 577.009,320.886 577.342,321.219L582.914,326.791L582.914,326.791ZM574.985,322.434L574.985,329.148L581.699,329.148C581.58,328.803 581.449,328.558 581.307,328.416L575.717,322.826C575.574,322.684 575.33,322.553 574.985,322.434L574.985,322.434ZM581.842,349.719L581.842,331.434L574.414,331.434C573.938,331.434 573.533,331.268 573.2,330.934C572.866,330.601 572.7,330.196 572.7,329.72L572.7,322.291L558.985,322.291L558.985,349.72L581.842,349.72L581.842,349.719ZM579.557,341.72L579.557,347.434L561.271,347.434L561.271,344.005L564.7,340.577L566.986,342.862L573.843,336.005L579.557,341.719L579.557,341.72ZM567.128,337.291C566.461,337.958 565.652,338.291 564.699,338.291C563.747,338.291 562.938,337.958 562.271,337.291C561.604,336.624 561.271,335.815 561.271,334.862C561.271,333.91 561.604,333.101 562.271,332.434C562.938,331.767 563.747,331.434 564.699,331.434C565.652,331.434 566.461,331.767 567.128,332.434C567.795,333.1 568.128,333.91 568.128,334.862C568.128,335.815 567.795,336.624 567.128,337.291Z" style="fill:rgb(103,103,103);fill-rule:nonzero;"/>
    </g>
</svg>
