<?xml version="1.0" encoding="UTF-8" standalone="no"?>
<!DOCTYPE svg PUBLIC "-//W3C//DTD SVG 1.1//EN" "http://www.w3.org/Graphics/SVG/1.1/DTD/svg11.dtd">
<svg width="100%" height="100%" viewBox="0 0 28 32" version="1.1" xmlns="http://www.w3.org/2000/svg" xmlns:xlink="http://www.w3.org/1999/xlink" xml:space="preserve" xmlns:serif="http://www.serif.com/" style="fill-rule:evenodd;clip-rule:evenodd;stroke-linejoin:round;stroke-miterlimit:1.41421;">
    <g transform="matrix(1,0,0,1,-736.927,-320.005)">
        <path d="M763.141,326.791C763.475,327.124 763.76,327.576 763.998,328.148C764.236,328.719 764.355,329.243 764.355,329.719L764.355,350.291C764.355,350.767 764.189,351.172 763.855,351.505C763.522,351.838 763.117,352.005 762.641,352.005L738.642,352.005C738.166,352.005 737.761,351.838 737.427,351.505C737.094,351.172 736.927,350.767 736.927,350.291L736.927,321.719C736.927,321.243 737.094,320.838 737.427,320.505C737.761,320.172 738.166,320.005 738.642,320.005L754.641,320.005C755.118,320.005 755.641,320.124 756.213,320.362C756.784,320.6 757.237,320.886 757.57,321.219L763.141,326.791L763.141,326.791ZM755.213,322.434L755.213,329.148L761.927,329.148C761.808,328.803 761.677,328.558 761.534,328.416L755.945,322.826C755.802,322.684 755.558,322.553 755.213,322.434L755.213,322.434ZM762.07,349.719L762.07,331.434L754.641,331.434C754.165,331.434 753.76,331.268 753.427,330.934C753.094,330.601 752.927,330.196 752.927,329.72L752.927,322.291L739.213,322.291L739.213,349.72L762.07,349.72L762.07,349.719ZM743.785,334.291C743.785,334.124 743.838,333.987 743.945,333.88C744.053,333.773 744.189,333.719 744.356,333.719L756.927,333.719C757.094,333.719 757.231,333.773 757.338,333.88C757.445,333.987 757.498,334.124 757.498,334.291L757.498,335.434C757.498,335.6 757.445,335.737 757.338,335.844C757.231,335.952 757.094,336.005 756.927,336.005L744.356,336.005C744.189,336.005 744.053,335.952 743.945,335.844C743.838,335.737 743.785,335.6 743.785,335.434L743.785,334.291ZM756.928,338.291C757.094,338.291 757.231,338.344 757.338,338.452C757.445,338.559 757.499,338.696 757.499,338.862L757.499,340.005C757.499,340.172 757.445,340.309 757.338,340.416C757.231,340.523 757.094,340.577 756.928,340.577L744.357,340.577C744.19,340.577 744.053,340.523 743.946,340.416C743.839,340.309 743.785,340.172 743.785,340.005L743.785,338.862C743.785,338.696 743.839,338.559 743.946,338.452C744.053,338.344 744.19,338.291 744.357,338.291L756.928,338.291ZM756.928,342.862C757.094,342.862 757.231,342.916 757.338,343.023C757.445,343.13 757.499,343.267 757.499,343.434L757.499,344.577C757.499,344.743 757.445,344.88 757.338,344.987C757.231,345.094 757.094,345.148 756.928,345.148L744.357,345.148C744.19,345.148 744.053,345.094 743.946,344.987C743.839,344.88 743.785,344.743 743.785,344.577L743.785,343.434C743.785,343.267 743.839,343.13 743.946,343.023C744.053,342.916 744.19,342.862 744.357,342.862L756.928,342.862Z" style="fill:rgb(103,103,103);fill-rule:nonzero;"/>
    </g>
</svg>
