<?xml version="1.0" encoding="UTF-8"?>
<svg width="16px" height="16px" viewBox="0 0 16 16" version="1.1" xmlns="http://www.w3.org/2000/svg" xmlns:xlink="http://www.w3.org/1999/xlink">
    <!-- Generator: Sketch 47.1 (45422) - http://www.bohemiancoding.com/sketch -->
    <title>picture_as_pdf_24px</title>
    <desc>Created with Sketch.</desc>
    <defs></defs>
    <g id="OnFLy---Content-request" stroke="none" stroke-width="1" fill="none" fill-rule="evenodd">
        <g id="00.01_Desktop-Copy-2" transform="translate(-794.000000, -773.000000)" fill-rule="nonzero" fill="#DB4437">
            <g id="Group-10" transform="translate(240.000000, 325.000000)">
                <g id="Group-4" transform="translate(541.000000, 426.000000)">
                    <g id="Group" transform="translate(0.000000, 9.000000)">
                        <g id="picture_as_pdf_24px" transform="translate(13.000000, 13.000000)">
                            <path d="M14,0 L2,0 C0.9,0 0,0.9 0,2 L0,14 C0,15.1 0.9,16 2,16 L14,16 C15.1,16 16,15.1 16,14 L16,2 C16,0.9 15.1,0 14,0 Z M5.5,7.5 C5.5,8.33 4.83,9 4,9 L3,9 L3,11 L1.5,11 L1.5,5 L4,5 C4.83,5 5.5,5.67 5.5,6.5 L5.5,7.5 Z M10.5,9.5 C10.5,10.33 9.83,11 9,11 L6.5,11 L6.5,5 L9,5 C9.83,5 10.5,5.67 10.5,6.5 L10.5,9.5 Z M14.5,6.5 L13,6.5 L13,7.5 L14.5,7.5 L14.5,9 L13,9 L13,11 L11.5,11 L11.5,5 L14.5,5 L14.5,6.5 Z M3,7.5 L4,7.5 L4,6.5 L3,6.5 L3,7.5 Z M8,9.5 L9,9.5 L9,6.5 L8,6.5 L8,9.5 Z" id="Shape"></path>
                        </g>
                    </g>
                </g>
            </g>
        </g>
    </g>
</svg>