<?xml version="1.0" encoding="UTF-8" standalone="no"?>
<!DOCTYPE svg PUBLIC "-//W3C//DTD SVG 1.1//EN" "http://www.w3.org/Graphics/SVG/1.1/DTD/svg11.dtd">
<svg width="100%" height="100%" viewBox="0 0 30 30" version="1.1" xmlns="http://www.w3.org/2000/svg" xmlns:xlink="http://www.w3.org/1999/xlink" xml:space="preserve" xmlns:serif="http://www.serif.com/" style="fill-rule:evenodd;clip-rule:evenodd;stroke-linejoin:round;stroke-miterlimit:1.41421;">
    <g transform="matrix(1,0,0,1,-562.163,-242.293)">
        <path d="M578.162,269.096L589.59,262.864L589.59,251.507L578.162,255.667L578.162,269.096ZM577.019,253.65L589.483,249.114L577.019,244.579L564.554,249.114L577.019,253.65ZM591.876,249.15L591.876,262.864C591.876,263.281 591.769,263.668 591.555,264.025C591.34,264.382 591.049,264.662 590.68,264.864L578.109,271.721C577.776,271.912 577.412,272.007 577.02,272.007C576.627,272.007 576.264,271.912 575.93,271.721L563.359,264.864C562.99,264.662 562.699,264.382 562.484,264.025C562.27,263.668 562.163,263.281 562.163,262.864L562.163,249.15C562.163,248.674 562.3,248.239 562.574,247.847C562.848,247.454 563.211,247.174 563.663,247.007L576.234,242.436C576.496,242.341 576.758,242.293 577.02,242.293C577.281,242.293 577.543,242.341 577.805,242.436L590.376,247.007C590.829,247.174 591.192,247.454 591.465,247.847C591.739,248.239 591.876,248.674 591.876,249.15Z" style="fill:white;fill-rule:nonzero;"/>
    </g>
</svg>
