<?xml version="1.0" encoding="UTF-8"?>
<svg width="36px" height="36px" viewBox="0 0 36 36" version="1.1" xmlns="http://www.w3.org/2000/svg" xmlns:xlink="http://www.w3.org/1999/xlink">
    <!-- Generator: Sketch 48.2 (47327) - http://www.bohemiancoding.com/sketch -->
    <title>Info</title>
    <desc>Created with Sketch.</desc>
    <defs>
        <linearGradient x1="98.9420573%" y1="0%" x2="0.944661458%" y2="100%" id="linearGradient-1">
            <stop stop-color="#4C98F3" offset="0%"></stop>
            <stop stop-color="#06BAEC" offset="100%"></stop>
        </linearGradient>
    </defs>
    <g id="01_BATCH-UPLOAD-" stroke="none" stroke-width="1" fill="none" fill-rule="evenodd" transform="translate(-170.000000, -696.000000)">
        <g id="Group-3" transform="translate(150.000000, 676.000000)" fill="url(#linearGradient-1)" fill-rule="nonzero">
            <g id="Group-2" transform="translate(10.000000, 2.000000)">
                <g id="Info" transform="translate(10.000000, 18.000000)">
                    <path d="M17.9733333,0 C27.8933333,0 36,8.05333333 36,18.0266667 C36,28 27.8933333,36 17.9733333,36 C8.05333333,36 0,27.9466667 0,18.0266667 C0,8.10666667 8.05333333,0 17.9733333,0 Z M17.9733333,34.08 C26.88,34.08 34.08,26.8266667 34.08,17.9733333 C34.08,9.12 26.88,1.86666667 17.9733333,1.86666667 C9.06666667,1.86666667 1.86666667,9.06666667 1.86666667,18.0266667 C1.86666667,26.9866667 9.06666667,34.08 17.9733333,34.08 Z" id="Shape"></path>
                    <g id="Group" transform="translate(17.000000, 8.000000)">
                        <rect id="Rectangle-path" x="0" y="4.84210526" width="2" height="14.7368421"></rect>
                        <rect id="Rectangle-path" x="0" y="0.421052632" width="2" height="2.63157895"></rect>
                    </g>
                </g>
            </g>
        </g>
    </g>
</svg>