<?xml version="1.0" encoding="UTF-8"?>
<svg width="96px" height="96px" viewBox="0 0 96 96" version="1.1" xmlns="http://www.w3.org/2000/svg" xmlns:xlink="http://www.w3.org/1999/xlink">
    <!-- Generator: Sketch 47.1 (45422) - http://www.bohemiancoding.com/sketch -->
    <title>Group 7</title>
    <desc>Created with Sketch.</desc>
    <defs>
        <linearGradient x1="98.9420573%" y1="0%" x2="0.944661458%" y2="100%" id="linearGradient-1">
            <stop stop-color="#4C98F3" offset="0%"></stop>
            <stop stop-color="#06BAEC" offset="100%"></stop>
        </linearGradient>
    </defs>
    <g id="OnFLy---Content-request" stroke="none" stroke-width="1" fill="none" fill-rule="evenodd">
        <g id="00" transform="translate(-804.000000, -374.000000)" fill="url(#linearGradient-1)">
            <g id="Group-6" transform="translate(420.000000, 292.000000)">
                <g id="Group-7" transform="translate(384.000000, 82.000000)">
                    <g id="noun_619454_cc-copy">
                        <g id="Group">
                            <path d="M48,0 C74.492,0 96,21.508 96,48 C96,74.492 74.492,96 48,96 C21.508,96 0,74.492 0,48 C0,21.508 21.508,0 48,0 Z M48,3 C72.836,3 93,23.164 93,48 C93,72.836 72.836,93 48,93 C23.164,93 3,72.836 3,48 C3,23.164 23.164,3 48,3 Z" id="Shape"></path>
                        </g>
                    </g>
                    <g id="noun_1117209_cc" transform="translate(29.000000, 29.000000)" fill-rule="nonzero">
                        <g id="Group">
                            <path d="M31.915,15.34 C31.395,14.82 30.615,14.82 30.095,15.34 C29.575,15.86 29.575,16.64 30.095,17.16 L33.28,20.345 C34.97,22.035 35.945,24.375 35.945,26.78 C35.945,29.185 34.97,31.525 33.28,33.215 C31.59,34.905 29.25,35.88 26.845,35.88 C24.44,35.88 22.1,34.905 20.41,33.215 L17.16,30.03 C16.64,29.51 15.86,29.51 15.34,30.03 C14.82,30.55 14.82,31.33 15.34,31.85 L18.59,35.035 C20.8,37.245 23.725,38.48 26.845,38.48 C29.965,38.48 32.89,37.31 35.1,35.1 C37.31,32.89 38.545,29.965 38.545,26.845 C38.545,23.725 37.31,20.8 35.1,18.59 L31.915,15.34 Z" id="Shape"></path>
                            <path d="M12.155,3.055 C14.56,3.055 16.9,4.03 18.59,5.72 L21.84,8.97 C22.36,9.49 23.14,9.49 23.66,8.97 C24.18,8.45 24.18,7.67 23.66,7.15 L20.41,3.9 C18.2,1.69 15.275,0.455 12.155,0.455 C9.035,0.455 6.11,1.69 3.9,3.9 C1.69,6.11 0.455,9.035 0.455,12.155 C0.455,15.275 1.69,18.2 3.9,20.41 L7.085,23.66 C7.345,23.92 7.67,24.05 7.995,24.05 C8.32,24.05 8.645,23.92 8.905,23.66 C9.425,23.14 9.425,22.36 8.905,21.84 L5.72,18.59 C4.03,16.9 3.055,14.56 3.055,12.155 C3.055,9.75 4.03,7.41 5.72,5.72 C7.41,4.03 9.685,3.055 12.155,3.055 Z" id="Shape"></path>
                            <path d="M23.66,24.96 C23.985,24.96 24.31,24.83 24.57,24.57 C25.09,24.05 25.09,23.27 24.57,22.75 L16.25,14.43 C15.73,13.91 14.95,13.91 14.43,14.43 C13.91,14.95 13.91,15.73 14.43,16.25 L22.75,24.57 C22.945,24.83 23.335,24.96 23.66,24.96 Z" id="Shape"></path>
                        </g>
                    </g>
                </g>
            </g>
        </g>
    </g>
</svg>