<?xml version="1.0" encoding="UTF-8"?>
<svg width="20px" height="20px" viewBox="0 0 20 20" version="1.1" xmlns="http://www.w3.org/2000/svg" xmlns:xlink="http://www.w3.org/1999/xlink">
    <!-- Generator: Sketch 47.1 (45422) - http://www.bohemiancoding.com/sketch -->
    <title>add_circle_outline_24px</title>
    <desc>Created with Sketch.</desc>
    <defs></defs>
    <g id="OnFLy---Content-request" stroke="none" stroke-width="1" fill="none" fill-rule="evenodd">
        <g id="00.01_Desktop-Copy-2" transform="translate(-781.000000, -882.000000)" fill-rule="nonzero" fill="#949494">
            <g id="Group-10" transform="translate(240.000000, 325.000000)">
                <g id="add_circle_outline_24px" transform="translate(541.000000, 557.000000)">
                    <path d="M11,5 L9,5 L9,9 L5,9 L5,11 L9,11 L9,15 L11,15 L11,11 L15,11 L15,9 L11,9 L11,5 Z M10,0 C4.48,0 0,4.48 0,10 C0,15.52 4.48,20 10,20 C15.52,20 20,15.52 20,10 C20,4.48 15.52,0 10,0 Z M10,18 C5.59,18 2,14.41 2,10 C2,5.59 5.59,2 10,2 C14.41,2 18,5.59 18,10 C18,14.41 14.41,18 10,18 Z" id="Shape"></path>
                </g>
            </g>
        </g>
    </g>
</svg>