<?xml version="1.0" encoding="UTF-8"?>
<svg width="20px" height="20px" viewBox="0 0 20 20" version="1.1" xmlns="http://www.w3.org/2000/svg" xmlns:xlink="http://www.w3.org/1999/xlink">
    <!-- Generator: Sketch 47.1 (45422) - http://www.bohemiancoding.com/sketch -->
    <title>ic_message_black_24px</title>
    <desc>Created with Sketch.</desc>
    <defs></defs>
    <g id="OnFLy---Content-request" stroke="none" stroke-width="1" fill="none" fill-rule="evenodd">
        <g id="00_User" transform="translate(-1111.000000, -355.000000)">
            <g id="Group-5" transform="translate(50.000000, 220.000000)">
                <g id="ic_message_black_24px" transform="translate(1059.000000, 133.000000)">
                    <path d="M20,2 L4,2 C2.9,2 2.01,2.9 2.01,4 L2,22 L6,18 L20,18 C21.1,18 22,17.1 22,16 L22,4 C22,2.9 21.1,2 20,2 Z M18,14 L6,14 L6,12 L18,12 L18,14 Z M18,11 L6,11 L6,9 L18,9 L18,11 Z M18,8 L6,8 L6,6 L18,6 L18,8 Z" id="Shape" fill="#949494" fill-rule="nonzero"></path>
                    <polygon id="Shape" points="0 0 24 0 24 24 0 24"></polygon>
                </g>
            </g>
        </g>
    </g>
</svg>