<?xml version="1.0" encoding="UTF-8"?>
<svg width="98px" height="98px" viewBox="0 0 98 98" version="1.1" xmlns="http://www.w3.org/2000/svg" xmlns:xlink="http://www.w3.org/1999/xlink">
    <!-- Generator: Sketch 47.1 (45422) - http://www.bohemiancoding.com/sketch -->
    <title>noun_619454_cc copy</title>
    <desc>Created with Sketch.</desc>
    <defs>
        <path d="M44.109375,46.109375 L44.109375,25.390625 C44.109375,24.071 45.180375,23 46.5,23 C47.819625,23 48.890625,24.071 48.890625,25.390625 L48.890625,46.109375 L69.609375,46.109375 C70.929,46.109375 72,47.180375 72,48.5 C72,49.819625 70.929,50.890625 69.609375,50.890625 L48.890625,50.890625 L48.890625,71.609375 C48.890625,72.9258125 47.826,73.9952187 46.5095625,74 C46.5031875,74 46.4968125,74 46.4904375,74 C45.174,73.9952187 44.109375,72.9258125 44.109375,71.609375 L44.109375,50.890625 L23.390625,50.890625 C22.071,50.890625 21,49.819625 21,48.5 C21,47.180375 22.071,46.109375 23.390625,46.109375 L44.109375,46.109375 Z" id="path-1"></path>
    </defs>
    <g id="OnFLy---Content-request" stroke="none" stroke-width="1" fill="none" fill-rule="evenodd">
        <g id="00" transform="translate(-803.000000, -373.000000)">
            <g id="Group-6" transform="translate(420.000000, 292.000000)">
                <g id="noun_619454_cc-copy" transform="translate(385.000000, 83.000000)">
                    <g id="Group">
                        <g id="Big-check">
                            <circle id="Oval-3" stroke="#EB4658" stroke-width="3" cx="47" cy="47" r="47"></circle>
                            <g id="Path" transform="translate(46.500000, 48.500000) rotate(-45.000000) translate(-46.500000, -48.500000) ">
                                <use fill="#EB4658" fill-rule="evenodd" xlink:href="#path-1"></use>
                                <path stroke="#FAFAFA" stroke-width="1" d="M44.609375,25.390625 L44.609375,46.609375 L23.390625,46.609375 C22.3471424,46.609375 21.5,47.4565174 21.5,48.5 C21.5,49.5434826 22.3471424,50.390625 23.390625,50.390625 L44.609375,50.390625 L44.609375,71.609375 C44.609375,72.6506121 45.4514806,73.4962233 46.4904375,73.5 L46.5,73.5 L46.5077465,73.5000033 C47.5485194,73.4962233 48.390625,72.6506121 48.390625,71.609375 L48.390625,50.390625 L69.609375,50.390625 C70.6528576,50.390625 71.5,49.5434826 71.5,48.5 C71.5,47.4565174 70.6528576,46.609375 69.609375,46.609375 L48.390625,46.609375 L48.390625,25.390625 C48.390625,24.3471424 47.5434826,23.5 46.5,23.5 C45.4565174,23.5 44.609375,24.3471424 44.609375,25.390625 Z"></path>
                            </g>
                        </g>
                    </g>
                </g>
            </g>
        </g>
    </g>
</svg>