<?xml version="1.0" encoding="UTF-8"?>
<svg width="18px" height="29px" viewBox="0 0 18 29" version="1.1" xmlns="http://www.w3.org/2000/svg" xmlns:xlink="http://www.w3.org/1999/xlink">
    <!-- Generator: Sketch 47.1 (45422) - http://www.bohemiancoding.com/sketch -->
    <title>Page 1</title>
    <desc>Created with Sketch.</desc>
    <defs>
        <linearGradient x1="98.9420573%" y1="0%" x2="0.944661458%" y2="100%" id="linearGradient-1">
            <stop stop-color="#4C98F3" offset="0%"></stop>
            <stop stop-color="#06BAEC" offset="100%"></stop>
        </linearGradient>
    </defs>
    <g id="CHARTE---filtres" stroke="none" stroke-width="1" fill="none" fill-rule="evenodd">
        <g id="Search-Field-Page-objets" transform="translate(-110.000000, -2838.000000)" stroke="url(#linearGradient-1)" fill="url(#linearGradient-1)">
            <g id="Group-5" transform="translate(93.000000, 2827.000000)">
                <g id="Page-1" transform="translate(26.638488, 29.430589) rotate(-45.000000) translate(-26.638488, -29.430589) translate(14.138488, 16.930589)">
                    <path d="M16.6969185,6.00301345 C16.2208876,6.00301345 15.7732645,6.18917351 15.4365119,6.52725626 C15.0999375,6.86457918 14.9143518,7.31413449 14.9143518,7.79274238 C14.9143518,8.27126089 15.0999375,8.72081619 15.4369127,9.05858607 C15.7732645,9.39622187 16.2208876,9.58242662 16.6969185,9.58242662 C17.1727268,9.58242662 17.6203053,9.39635595 17.9573251,9.05854138 C18.6523364,8.3603406 18.6523364,7.22509947 17.9577703,6.52739035 C17.6203053,6.18908412 17.1727268,6.00301345 16.6969185,6.00301345 M11.5135428,24.008281 C11.5057066,24.008281 11.4981786,24.0063807 11.4911788,24.0026686 C11.4722928,23.9925486 11.4623434,23.9717783 11.4664376,23.950787 L12.7889039,17.1260132 L11.5823075,17.7431568 C10.8969935,18.0937333 10.1816995,18.4232302 9.45623608,18.7224996 C9.4498967,18.7251511 9.44386547,18.7263443 9.43774621,18.7263443 C9.43030623,18.7263443 9.41591054,18.724444 9.40318775,18.7117167 L7.5970792,16.8986886 L5.88540108,18.6169245 C5.88183518,18.620504 5.87122551,18.6311101 5.85123884,18.6311101 C5.83125216,18.6311101 5.82095066,18.6208134 5.81707659,18.6169245 C5.79827855,18.5980102 5.79827855,18.5672525 5.81712062,18.548294 L7.52875471,16.8301024 L5.72220593,15.0166324 C5.70860266,15.0029771 5.70433238,14.9821625 5.71177235,14.9640438 C6.01091211,14.2337681 6.33923945,13.5156011 6.68772956,12.8293851 L7.30300215,11.61768 L0.50418725,12.9468479 C0.503350804,12.9469363 0.49916857,12.9473782 0.494590125,12.9473782 C0.480722719,12.9473782 0.462188821,12.9404842 0.451931343,12.9211281 C0.442378241,12.9030535 0.445900122,12.8798084 0.460692022,12.865004 L5.30935344,8.01323387 C5.31644123,8.00616313 5.32493777,8.00161133 5.33466696,7.99971107 L10.8822456,6.91558872 L11.0242655,6.77461569 C12.2791116,5.52941288 13.7457109,4.40171705 15.3834295,3.42281626 C16.723153,2.62200992 18.1805513,1.9176309 19.7150788,1.32916794 C22.3137426,0.332501898 24.228149,0.0135669966 24.3083598,0.000441921715 C24.3100768,0.000176768686 24.3125861,0 24.3150954,0 C24.3278182,0 24.3401008,0.00503790755 24.3488615,0.0138763418 C24.3605277,0.0255430751 24.3654583,0.0414522568 24.362949,0.0572730542 C24.3298433,0.258214858 24.0068868,2.12347803 23.0396903,4.66567689 C22.4529009,6.20701144 21.7511662,7.67012585 20.9540325,9.01431913 C19.9796161,10.6572957 18.856048,12.1296463 17.614453,13.3904047 L17.474106,13.5329687 L16.3942973,19.101801 C16.3924924,19.1109929 16.3877378,19.1200081 16.3809582,19.1268579 L11.5478371,23.9939185 C11.5354225,24.0063807 11.5210268,24.008281 11.5135428,24.008281 Z M5.36746448,8.09220528 L0.641188416,12.8209002 L7.40901076,11.4983611 L7.56031957,11.2450074 C8.14781332,10.2614222 8.79482686,9.33157473 9.48348663,8.48131735 L10.631972,7.06314638 L5.36746448,8.09220528 Z M10.1229722,14.2470258 C10.1430469,14.2470258 10.1536565,14.2576319 10.1571344,14.2611231 C10.1759765,14.2800373 10.1759765,14.3107951 10.1571344,14.3297093 L7.66597599,16.830014 L9.45227396,18.6236417 L9.86362965,18.4459449 C10.888497,18.0032278 11.8746676,17.5073032 12.794715,16.9720476 L12.8183116,16.9583039 L12.8406755,16.942704 L12.8612345,16.9324956 L12.8836865,16.919459 C14.6118294,15.9040996 16.1532246,14.7216055 17.4649491,13.4048114 C20.3237919,10.5344414 22.0178606,7.06844944 22.9355747,4.66633977 C23.4967864,3.19756876 23.8451004,1.93018147 24.0384957,1.12557461 L24.291807,0.0716797021 L23.2418903,0.325652111 C22.4426435,0.518992862 21.1819862,0.868022632 19.7149908,1.43279858 C17.3219167,2.35402859 13.8690647,4.05458754 11.0098698,6.92442715 C9.69770504,8.24157482 8.51963589,9.78905209 7.5083278,11.52386 L7.49723388,11.5428626 L7.48746066,11.5625723 C7.48631605,11.5648261 7.48517144,11.5671241 7.48389475,11.5692895 L7.46848653,11.5915624 L7.45660018,11.6125095 C6.92387167,12.5349327 6.42988386,13.5251025 5.98828403,14.5554871 L5.81135354,14.9683746 L7.59760748,16.7615161 L10.0888099,14.2611673 C10.0922878,14.2576319 10.1028974,14.2470258 10.1229722,14.2470258 Z M16.6966513,9.68075846 C16.1943499,9.68075846 15.7220592,9.48440765 15.3668728,9.12786533 C15.0116863,8.77132301 14.8160822,8.29722943 14.8160822,7.79301056 C14.8160822,7.28879169 15.0116863,6.81474282 15.3668728,6.4581558 C15.7220592,6.10161347 16.1943499,5.90526266 16.6966513,5.90526266 C17.1989528,5.90526266 17.6711989,6.10161347 18.0263854,6.4581558 C18.3815718,6.81469812 18.5772205,7.28874699 18.5772205,7.79301056 C18.5772205,8.29727413 18.3815718,8.77132301 18.0263854,9.12786533 C17.6711989,9.48440765 17.1989528,9.68075846 16.6966513,9.68075846 Z M15.914265,14.9368214 C15.0654036,15.629622 14.139193,16.2790702 13.1613428,16.8671796 L12.9088239,17.0190239 L11.5912883,23.8127306 L16.301892,19.0688778 L17.3270235,13.7838476 L15.914265,14.9368214 Z" id="Combined-Shape"></path>
                </g>
            </g>
        </g>
    </g>
</svg>