<?xml version="1.0" encoding="UTF-8"?>
<svg width="325px" height="211px" viewBox="0 0 325 211" version="1.1" xmlns="http://www.w3.org/2000/svg" xmlns:xlink="http://www.w3.org/1999/xlink">
    <!-- Generator: Sketch 47.1 (45422) - http://www.bohemiancoding.com/sketch -->
    <title>Group</title>
    <desc>Created with Sketch.</desc>
    <defs>
        <linearGradient x1="98.9420573%" y1="0%" x2="0.944661458%" y2="100%" id="linearGradient-1">
            <stop stop-color="#4C98F3" offset="0%"></stop>
            <stop stop-color="#06BAEC" offset="100%"></stop>
        </linearGradient>
    </defs>
    <g id="Analytics---Messagerie" stroke="none" stroke-width="1" fill="none" fill-rule="evenodd">
        <g id="00.00_Desktop-Copy" transform="translate(-603.000000, -332.000000)" stroke="url(#linearGradient-1)" fill="url(#linearGradient-1)">
            <g id="Group" transform="translate(604.000000, 333.000000)">
                <g id="Page-1" transform="translate(36.000000, 0.000000)">
                    <path d="M146.523125,49.4657874 C142.581784,49.4657874 138.875648,50.999776 136.087475,53.7856317 C133.300776,56.5652263 131.764202,60.2696337 131.764202,64.213439 C131.764202,68.1565078 133.300776,71.8609151 136.090792,74.6441928 C138.875648,77.4263655 142.581784,78.9607223 146.523125,78.9607223 C150.462622,78.9607223 154.168389,77.4274704 156.958774,74.6438244 C162.713184,68.8905388 162.713184,59.535971 156.962461,53.7867367 C154.168389,50.9990394 150.462622,49.4657874 146.523125,49.4657874 M0.400626901,169.55355 C0.234476711,169.55355 0.149571768,169.469602 0.117732414,169.438121 C0.0880888783,169.408811 -0.000109790875,169.321244 -0.000109790875,169.156241 C-0.000109790875,168.991601 0.0877229087,168.904757 0.116634506,168.876171 L34.1810832,135.195016 C34.2096288,135.166792 34.2978275,135.079587 34.4650756,135.079587 C34.6319577,135.079587 34.7201564,135.166792 34.749068,135.195378 C34.905337,135.349887 34.905337,135.602095 34.748336,135.757327 L0.684619297,169.437397 C0.652779943,169.468878 0.567143061,169.55355 0.400626901,169.55355 Z M7.58471679,201.820611 C7.42028418,201.820611 7.33625694,201.736662 7.30474673,201.705182 C7.27323651,201.673701 7.18631179,201.586858 7.18631179,201.424751 C7.18631179,201.262644 7.27323651,201.176163 7.30148705,201.147939 L42.4426192,166.039093 C42.4712319,166.010507 42.5585188,165.923664 42.7225892,165.923664 C42.8862975,165.923664 42.9732222,166.010507 43.0018349,166.038731 C43.1561263,166.193239 43.1568507,166.445808 43.0021971,166.600678 L7.86577341,201.704458 C7.78862771,201.781531 7.69409707,201.820611 7.58471679,201.820611 Z M40.3182259,209 C40.2093868,209 40.1160446,208.962194 40.0407222,208.886943 C40.0108094,208.856699 39.9239544,208.769926 39.9239544,208.607182 C39.9243148,208.444798 40.010449,208.358746 40.0389202,208.330301 L73.586599,174.81441 C73.6150702,174.785966 73.7022857,174.698473 73.8659047,174.698473 C74.0273615,174.698473 74.1131353,174.784526 74.1416065,174.81261 C74.2972969,174.968153 74.2972969,175.21911 74.1430481,175.372853 L40.5975316,208.886943 C40.5690605,208.915388 40.4843678,209 40.3182259,209 Z M103.606897,197.832061 C103.542017,197.832061 103.479688,197.816403 103.421733,197.785814 C103.265364,197.702423 103.182988,197.531273 103.216886,197.358301 L114.166365,141.121078 L104.176241,146.20644 C98.5021221,149.095246 92.5797808,151.810352 86.5732408,154.27638 C86.5207533,154.298229 86.4708173,154.308061 86.4201522,154.308061 C86.3585523,154.308061 86.2393619,154.292402 86.1340224,154.187527 L71.1801836,139.247887 L57.0081901,153.406424 C56.9786658,153.43592 56.8908222,153.523316 56.7253407,153.523316 C56.5598592,153.523316 56.474567,153.438469 56.4424913,153.406424 C56.2868512,153.250568 56.2868512,152.997119 56.4428558,152.840898 L70.6144848,138.682726 L55.6570011,123.739444 C55.5443716,123.626922 55.5090154,123.455407 55.5706154,123.306105 C58.04737,117.288517 60.7657858,111.370707 63.6511412,105.716178 L68.7453461,95.7315341 L12.4539443,106.68409 C12.4470189,106.684818 12.4123917,106.68846 12.3744841,106.68846 C12.2596676,106.68846 12.1062146,106.631652 12.0212868,106.472154 C11.9421911,106.323217 11.9713508,106.131673 12.0938217,106.009683 L52.2387516,66.030324 C52.2974356,65.9720599 52.3677835,65.9345524 52.4483372,65.918894 L98.3800157,56.985553 L99.5558818,55.8239128 C109.945494,45.5632432 122.088335,36.2708499 135.647974,28.2045514 C146.740335,21.6057795 158.806996,15.8015842 171.512255,10.9525556 C193.028127,2.73986862 208.878627,0.111794214 209.54274,0.00364150535 C209.556956,0.00145660214 209.577732,0 209.598508,0 C209.703848,0 209.805542,0.041513161 209.878077,0.114343268 C209.974669,0.210479009 210.015492,0.341573202 209.994716,0.471939093 C209.720615,2.12773158 207.046667,17.4977974 199.038676,38.445921 C194.180301,51.1467634 188.370225,63.2030593 181.770284,74.2794261 C173.702516,87.8178147 164.399833,99.9502181 154.119934,110.339069 L152.957919,111.513818 L144.017545,157.401884 C144.002601,157.477627 143.963235,157.551914 143.907103,157.608357 L103.89084,197.713712 C103.788052,197.816403 103.668862,197.832061 103.606897,197.832061 Z M52.7198872,66.681061 L13.5882579,105.646261 L69.623054,94.7483277 L70.8758289,92.6606526 C75.7400364,84.5557542 81.0970434,76.8936628 86.7988642,69.8874065 L96.3078524,58.2014517 L52.7198872,66.681061 Z M92.0935423,117.397763 C92.2597528,117.397763 92.3475965,117.485159 92.3763917,117.513927 C92.5323962,117.669783 92.5323962,117.923232 92.3763917,118.079088 L71.7506208,138.681997 L86.5404361,153.461775 L89.9462927,151.997526 C98.4317742,148.349466 106.596863,144.262968 114.214478,139.852377 L114.409849,139.739126 L114.595013,139.610581 L114.765233,139.526462 L114.951126,139.419038 C129.259441,131.052315 142.021562,121.308375 152.882103,110.457782 C176.55215,86.8054762 190.578345,58.2451497 198.176642,38.4513833 C202.823245,26.3484761 205.707142,15.9050029 207.308376,9.27491412 L209.40569,0.590652168 L200.712809,2.68342529 C194.095373,4.27658388 183.657648,7.15264481 171.511526,11.8064886 C151.697854,19.3975707 123.109654,33.4104474 99.4366914,57.0583832 C88.5725048,67.9118898 78.818575,80.6633491 70.4453584,94.9584425 L70.3535052,95.1150273 L70.272587,95.2774384 C70.2631101,95.2960101 70.2536332,95.3149459 70.2430628,95.3327893 L70.1154889,95.5163211 L70.0170748,95.6889285 C65.6063011,103.289843 61.5162844,111.448999 57.8600187,119.939533 L56.3951067,123.341792 L71.1845575,138.117564 L91.8106929,117.514291 C91.8394882,117.485159 91.9273318,117.397763 92.0935423,117.397763 Z M146.520913,79.7709924 C142.362063,79.7709924 138.451689,78.1530304 135.510891,75.2150648 C132.570092,72.2770993 130.95057,68.3704927 130.95057,64.2156489 C130.95057,60.060805 132.570092,56.1545667 135.510891,53.2162329 C138.451689,50.2782673 142.362063,48.6603053 146.520913,48.6603053 C150.679763,48.6603053 154.589767,50.2782673 157.530566,53.2162329 C160.471364,56.1541984 162.091255,60.0604367 162.091255,64.2156489 C162.091255,68.370861 160.471364,72.2770993 157.530566,75.2150648 C154.589767,78.1530304 150.679763,79.7709924 146.520913,79.7709924 Z M140.043074,123.081788 C133.01485,128.790576 125.346205,134.142133 117.250006,138.988248 L115.159254,140.239469 L104.250598,196.220695 L143.252467,157.130592 L151.740136,113.581101 L140.043074,123.081788 Z" id="Combined-Shape"></path>
                </g>
                <g id="Page-1" transform="translate(0.000000, 10.000000)" stroke-width="1.5">
                    <path d="M8.01335351,6.50406235 C3.5234171,6.95546053 0.138712255,10.6669084 0.138712255,15.1398654 C0.138712255,17.4760468 1.05534548,19.6683303 2.71964091,21.3128071 C4.38393634,22.9572839 6.60257753,23.8629395 8.96691376,23.8629395 L29.6007549,23.8629395 C33.6042233,23.8629395 36.8612877,20.6446607 36.8612877,16.688866 C36.8612877,12.9639297 33.9105856,9.86835256 30.1436514,9.64141028 L29.595219,9.61778989 L29.476826,9.07974214 C28.9587153,6.56684287 27.5753672,4.28778551 25.581182,2.66183208 C23.5844804,1.03370309 21.0696681,0.137060452 18.5,0.137060452 C14.3225279,0.137060452 10.5099854,2.43364663 8.55008501,6.1305493 L8.38419648,6.45825121 L8.01335351,6.50406235 Z M8.96691376,24 C4.02259249,24 0,20.0253712 0,15.1398654 C0,12.9378851 0.822522783,10.8280865 2.31614867,9.19914946 C3.80178523,7.57879034 5.82207733,6.57075888 8.00492383,6.360786 L8.31002788,6.33144698 L8.45194845,6.06298254 C10.4284565,2.3231902 14.2786181,0 18.5,0 C21.1766118,0 23.6773327,0.896021051 25.7317839,2.59115737 C27.7170362,4.22916963 29.1049765,6.51145926 29.6400095,9.01752105 L29.7288986,9.43411023 L30.159001,9.46040346 C33.995134,9.69486697 37,12.8699454 37,16.688866 C37,20.7203081 33.6997178,24 29.6431549,24 L8.96691376,24 Z" id="Fill-1"></path>
                </g>
                <g id="Page-1-Copy" transform="translate(304.500000, 93.000000) scale(-1, 1) translate(-304.500000, -93.000000) translate(286.000000, 81.000000)" stroke-width="1.5">
                    <path d="M8.01335351,6.50406235 C3.5234171,6.95546053 0.138712255,10.6669084 0.138712255,15.1398654 C0.138712255,17.4760468 1.05534548,19.6683303 2.71964091,21.3128071 C4.38393634,22.9572839 6.60257753,23.8629395 8.96691376,23.8629395 L29.6007549,23.8629395 C33.6042233,23.8629395 36.8612877,20.6446607 36.8612877,16.688866 C36.8612877,12.9639297 33.9105856,9.86835256 30.1436514,9.64141028 L29.595219,9.61778989 L29.476826,9.07974214 C28.9587153,6.56684287 27.5753672,4.28778551 25.581182,2.66183208 C23.5844804,1.03370309 21.0696681,0.137060452 18.5,0.137060452 C14.3225279,0.137060452 10.5099854,2.43364663 8.55008501,6.1305493 L8.38419648,6.45825121 L8.01335351,6.50406235 Z M8.96691376,24 C4.02259249,24 0,20.0253712 0,15.1398654 C0,12.9378851 0.822522783,10.8280865 2.31614867,9.19914946 C3.80178523,7.57879034 5.82207733,6.57075888 8.00492383,6.360786 L8.31002788,6.33144698 L8.45194845,6.06298254 C10.4284565,2.3231902 14.2786181,0 18.5,0 C21.1766118,0 23.6773327,0.896021051 25.7317839,2.59115737 C27.7170362,4.22916963 29.1049765,6.51145926 29.6400095,9.01752105 L29.7288986,9.43411023 L30.159001,9.46040346 C33.995134,9.69486697 37,12.8699454 37,16.688866 C37,20.7203081 33.6997178,24 29.6431549,24 L8.96691376,24 Z" id="Fill-1"></path>
                </g>
                <g id="Page-1-Copy-2" transform="translate(276.000000, 80.000000) scale(-1, 1) translate(-276.000000, -80.000000) translate(268.000000, 75.000000)" stroke-width="1.5">
                    <path d="M3.46523395,2.71002598 C1.52363983,2.89810856 0.0599836779,4.44454516 0.0599836779,6.30827724 C0.0599836779,7.28168616 0.456365615,8.19513762 1.17606094,8.88033628 C1.89575626,9.56553494 2.85516866,9.94289148 3.87758433,9.94289148 L12.8003264,9.94289148 C14.531556,9.94289148 15.9400163,8.60194195 15.9400163,6.95369418 C15.9400163,5.40163737 14.664037,4.11181356 13.0350925,4.01725428 L12.7979325,4.00741245 L12.7467356,3.78322589 C12.5226877,2.73618453 11.9244831,1.7865773 11.0621328,1.1090967 C10.1986942,0.430709622 9.11120783,0.0571085217 8,0.0571085217 C6.19352557,0.0571085217 4.54485854,1.01401943 3.69733406,2.55439554 L3.62559848,2.690938 L3.46523395,2.71002598 Z M3.87758433,10 C1.73949946,10 0,8.34390467 0,6.30827724 C0,5.39078546 0.355685528,4.51170271 1.0015778,3.83297894 C1.64401523,3.15782931 2.51765506,2.7378162 3.46158868,2.6503275 L3.59352557,2.63810291 L3.65489663,2.52624273 C4.50960283,0.967995918 6.17453754,0 8,0 C9.15745375,0 10.2388466,0.373342105 11.1272579,1.07964891 C11.9857454,1.76215401 12.5859358,2.71310802 12.8173014,3.75730044 L12.8557399,3.93087926 L13.0417301,3.94183478 C14.7005985,4.0395279 16,5.36247724 16,6.95369418 C16,8.63346171 14.5728509,10 12.8186616,10 L3.87758433,10 Z" id="Fill-1"></path>
                </g>
            </g>
        </g>
    </g>
</svg>