<?xml version="1.0" encoding="UTF-8"?>
<svg width="154px" height="100px" viewBox="0 0 154 100" version="1.1" xmlns="http://www.w3.org/2000/svg" xmlns:xlink="http://www.w3.org/1999/xlink">
    <!-- Generator: Sketch 48.2 (47327) - http://www.bohemiancoding.com/sketch -->
    <title>SuccessCloud</title>
    <desc>Created with Sketch.</desc>
    <defs>
        <linearGradient x1="98.9420573%" y1="0%" x2="0.944661458%" y2="100%" id="linearGradient-1">
            <stop stop-color="#4C98F3" offset="0%"></stop>
            <stop stop-color="#06BAEC" offset="100%"></stop>
        </linearGradient>
    </defs>
    <g id="04_Manage-Users---MULTIPLE-INVITE" stroke="none" stroke-width="1" fill="none" fill-rule="evenodd" transform="translate(-643.000000, -302.000000)">
        <g id="SuccessCloud" transform="translate(643.000000, 302.000000)">
            <path d="M37.3217492,100 C16.7426823,100 0,83.4390467 0,63.0827724 C0,53.9078546 3.4234732,45.1170271 9.64018634,38.3297894 C15.8236466,31.5782931 24.23243,27.378162 33.3177911,26.503275 L34.5876836,26.3810291 L35.17838,25.2624273 C43.4049272,9.67995918 59.4299238,0 77,0 C88.1404924,0 98.5488983,3.73342105 107.099857,10.7964891 C115.362799,17.6215401 121.139632,27.1310802 123.366526,37.5730044 L123.736497,39.3087926 L125.526653,39.4183478 C141.49326,40.395279 154,53.6247724 154,69.5369418 C154,86.3346171 140.26369,100 123.379618,100 L37.3217492,100 Z" id="Fill-1" fill="url(#linearGradient-1)" opacity="0.546025815"></path>
            <path d="M90.7370074,46.4251974 C83.821587,53.6172645 76.8991647,60.7624796 69.980525,67.9548692 L62.7261578,61.9173989 C62.2167124,61.5329866 61.4928652,61.6350772 61.1092117,62.1454497 C60.7255582,62.6557416 60.8274473,63.3811011 61.3368123,63.7655941 L69.4055679,70.4150437 C69.8699439,70.7663936 70.5230482,70.7148644 70.9267415,70.295051 C78.0794202,62.8562245 85.2337891,55.4636856 92.3898481,48.021311 C92.8406229,47.5730315 92.8432788,46.8435593 92.3958842,46.391893 C92.1643401,46.1581167 91.8437838,46.034737 91.5155013,46.0532037 C91.2177212,46.0713477 90.9385322,46.2047268 90.7370074,46.4251974 Z" id="Fill-1" stroke="#FFFFFF" fill="#FFFFFF" transform="translate(76.803241, 58.349598) rotate(2.000000) translate(-76.803241, -58.349598) "></path>
        </g>
    </g>
</svg>