<svg width="24" height="24" viewBox="0 0 24 24" fill="none" xmlns="http://www.w3.org/2000/svg">
<path d="M14.3536 1.64645L14.2071 1.5H14H6C4.62071 1.5 3.51017 2.62695 3.51 3.99969C3.51 3.99975 3.51 3.99981 3.51 3.99987C3.51 3.99992 3.51 3.99996 3.51 4L3.5 19.9997V20C3.5 21.3729 4.6106 22.5 5.99 22.5H18C19.3761 22.5 20.5 21.3761 20.5 20V8V7.79289L20.3536 7.64645L14.3536 1.64645Z" fill="white" stroke="#ECEEF0"/>
<path d="M17.5 13C17.5 16.0376 15.0376 18.5 12 18.5C8.96243 18.5 6.5 16.0376 6.5 13C6.5 9.96243 8.96243 7.5 12 7.5C15.0376 7.5 17.5 9.96243 17.5 13Z" stroke="white"/>
<path fill-rule="evenodd" clip-rule="evenodd" d="M12 20C15.866 20 19 16.866 19 13C19 9.13401 15.866 6 12 6C8.13401 6 5 9.13401 5 13C5 16.866 8.13401 20 12 20Z" fill="#4D9EF9"/>
<path fill-rule="evenodd" clip-rule="evenodd" d="M16.2516 8.76635L13.4142 14.4142L10.5858 11.5858L16.2516 8.76635Z" fill="#F03D3E"/>
<path fill-rule="evenodd" clip-rule="evenodd" d="M10.5858 11.5858L13.4142 14.4142L7.77536 17.2606L10.5858 11.5858Z" fill="white"/>
</svg>
